<?xml version="1.0" encoding="UTF-8" standalone="no"?>
<!DOCTYPE svg PUBLIC "-//W3C//DTD SVG 1.0//EN" "http://www.w3.org/TR/2001/REC-SVG-20010904/DTD/svg10.dtd">
<!-- Generated by Microsoft Visio 11.0, SVG Export, v1.0 Architecture-FrontEndAppWithLocalStorage.svg Page-1 -->
<svg xmlns="http://www.w3.org/2000/svg" xmlns:xlink="http://www.w3.org/1999/xlink" xmlns:ev="http://www.w3.org/2001/xml-events"
		xmlns:v="http://schemas.microsoft.com/visio/2003/SVGExtensions/" width="4.4005in" height="2.42327in"
		viewBox="0 0 316.836 174.475" xml:space="preserve" color-interpolation-filters="sRGB" class="st19">
	<v:documentProperties v:langID="1033" v:metric="true" v:viewMarkup="false"/>

	<style type="text/css">
	<![CDATA[
		.st1 {visibility:visible}
		.st2 {fill:#cdcdcd;fill-opacity:0.5;stroke:#cdcdcd;stroke-linecap:round;stroke-linejoin:round;stroke-opacity:0.5;stroke-width:0.25}
		.st3 {fill:url(#grad30-6);stroke:#404040;stroke-linecap:round;stroke-linejoin:round;stroke-width:0.25}
		.st4 {stroke:#cdcdcd;stroke-dasharray:7.5,4.5;stroke-linecap:round;stroke-linejoin:round;stroke-opacity:0.5;stroke-width:0.5}
		.st5 {stroke:#404040;stroke-dasharray:7.5,4.5;stroke-linecap:round;stroke-linejoin:round;stroke-width:0.5}
		.st6 {fill:#000000;font-family:Calibri;font-size:0.666664em}
		.st7 {font-size:1em}
		.st8 {fill:none;stroke:none;stroke-linecap:round;stroke-linejoin:round;stroke-width:0.25}
		.st9 {fill:#000000;font-family:Calibri;font-size:0.833336em}
		.st10 {fill:url(#grad30-55);stroke:#404040;stroke-linecap:round;stroke-linejoin:round;stroke-width:0.25}
		.st11 {fill:#000000;font-family:Calibri;font-size:0.833336em;font-weight:bold}
		.st12 {fill:url(#grad30-68);stroke:#404040;stroke-linecap:round;stroke-linejoin:round;stroke-width:0.25}
		.st13 {fill:url(#grad30-79);stroke:#404040;stroke-linecap:round;stroke-linejoin:round;stroke-width:0.25}
		.st14 {fill:#000000;font-family:Calibri;font-size:0.583328em}
		.st15 {fill:url(#grad30-6);stroke:#7f7f7f;stroke-linecap:round;stroke-linejoin:round;stroke-width:0.25}
		.st16 {fill:#595959;font-family:Calibri;font-size:0.666664em}
		.st17 {fill:#595959;font-family:Calibri;font-size:0.583328em}
		.st18 {fill:#595959;font-family:Calibri;font-size:0.499992em}
		.st19 {fill:none;fill-rule:evenodd;font-size:12px;overflow:visible;stroke-linecap:square;stroke-miterlimit:3}
	]]>
	</style>

	<defs id="Patterns_And_Gradients">
		<linearGradient id="grad30-6" v:fillPattern="30" v:foreground="#f0f0f0" v:background="#ffffff" x1="0" y1="1" x2="0" y2="0">
			<stop offset="0" style="stop-color:#f0f0f0;stop-opacity:1"/>
			<stop offset="1" style="stop-color:#ffffff;stop-opacity:1"/>
		</linearGradient>
		<linearGradient id="grad30-55" v:fillPattern="30" v:foreground="#7d7d7d" v:background="#8c8c8c" x1="0" y1="1" x2="0" y2="0">
			<stop offset="0" style="stop-color:#7d7d7d;stop-opacity:1"/>
			<stop offset="1" style="stop-color:#8c8c8c;stop-opacity:1"/>
		</linearGradient>
		<linearGradient id="grad30-68" v:fillPattern="30" v:foreground="#c9c9c9" v:background="#d8d8d8" x1="0" y1="1" x2="0" y2="0">
			<stop offset="0" style="stop-color:#c9c9c9;stop-opacity:1"/>
			<stop offset="1" style="stop-color:#d8d8d8;stop-opacity:1"/>
		</linearGradient>
		<linearGradient id="grad30-79" v:fillPattern="30" v:foreground="#717171" v:background="#7f7f7f" x1="0" y1="1" x2="0" y2="0">
			<stop offset="0" style="stop-color:#717171;stop-opacity:1"/>
			<stop offset="1" style="stop-color:#7f7f7f;stop-opacity:1"/>
		</linearGradient>
	</defs>
	<g v:mID="0" v:index="1" v:groupContext="foregroundPage">
		<title>Page-1</title>
		<v:pageProperties v:drawingScale="0.0393701" v:pageScale="0.0393701" v:drawingUnits="24" v:shadowOffsetX="8.50394"
				v:shadowOffsetY="-8.50394"/>
		<g id="shape44-1" v:mID="44" v:groupContext="shape" transform="translate(31.4311,-90.6034)">
			<title>Sheet.44</title>
			<v:userDefs>
				<v:ud v:nameU="msvThemeColors" v:val="VT0(36):26"/>
				<v:ud v:nameU="msvThemeEffects" v:val="VT0(16):26"/>
			</v:userDefs>
			<g id="shadow44-2" v:groupContext="shadow" v:shadowOffsetX="1.44" v:shadowOffsetY="-1.44" v:shadowType="1"
					transform="matrix(1,0,0,1,1.44,1.44)" class="st1">
				<path d="M0 174.48 L99.21 174.48 L99.21 147.55 L127.56 147.55 L127.56 120.62 L0 120.62 L0 174.48 Z" class="st2"/>
			</g>
			<path d="M0 174.48 L99.21 174.48 L99.21 147.55 L127.56 147.55 L127.56 120.62 L0 120.62 L0 174.48 Z" class="st3"/>
		</g>
		<g id="shape27-7" v:mID="27" v:groupContext="shape" transform="translate(261.037,-2.2227)">
			<title>Sheet.27</title>
			<v:userDefs>
				<v:ud v:nameU="msvThemeColors" v:val="VT0(36):26"/>
				<v:ud v:nameU="msvThemeEffects" v:val="VT0(16):26"/>
			</v:userDefs>
			<g id="shadow27-8" v:groupContext="shadow" v:shadowOffsetX="1.44" v:shadowOffsetY="-1.44" v:shadowType="1"
					transform="matrix(1,0,0,1,1.44,1.44)" class="st1">
				<path d="M7.67 158.96 C0.08 159.77 -1.83 136.67 1.73 127.78 C5.13 119.27 13.54 123.78 16.91 130.61 C23.84 118.62
							 35.38 113.25 40.66 130.61 C48.73 122.21 53.75 133.45 53.86 145.35 C53.99 160.18 46.5 176.02 38.02 158.96
							 C37.45 162.01 36.39 161.81 35.38 161.79 C22.44 161.63 17.63 192.68 7.67 158.96 Z" class="st2"/>
			</g>
			<path d="M7.67 158.96 C0.08 159.77 -1.83 136.67 1.73 127.78 C5.13 119.27 13.54 123.78 16.91 130.61 C23.84 118.62 35.38
						 113.25 40.66 130.61 C48.73 122.21 53.75 133.45 53.86 145.35 C53.99 160.18 46.5 176.02 38.02 158.96 C37.45
						 162.01 36.39 161.81 35.38 161.79 C22.44 161.63 17.63 192.68 7.67 158.96 Z" class="st3"/>
		</g>
		<g id="shape4-12" v:mID="4" v:groupContext="shape" transform="translate(3.08465,-66.5089)">
			<title>Sheet.4</title>
			<v:userDefs>
				<v:ud v:nameU="msvThemeColors" v:val="VT0(36):26"/>
				<v:ud v:nameU="msvThemeEffects" v:val="VT0(16):26"/>
			</v:userDefs>
			<g id="shadow4-13" v:groupContext="shadow" v:shadowOffsetX="1.44" v:shadowOffsetY="-1.44" v:shadowType="1"
					transform="matrix(1,0,0,1,1.44,1.44)" class="st1">
				<path d="M0 174.48 L311.81 174.48" class="st4"/>
			</g>
			<path d="M0 174.48 L311.81 174.48" class="st5"/>
		</g>
		<g id="shape1-19" v:mID="1" v:groupContext="shape" transform="translate(34.2657,-120.651)">
			<title>Rectangle</title>
			<desc>UI/View</desc>
			<v:userDefs>
				<v:ud v:nameU="visVersion" v:val="VT0(14):26"/>
				<v:ud v:nameU="msvThemeColors" v:val="VT0(36):26"/>
				<v:ud v:nameU="msvThemeEffects" v:val="VT0(16):26"/>
			</v:userDefs>
			<v:textBlock v:margins="rect(1,1,1,1)" v:tabSpace="42.5197"/>
			<v:textRect cx="17.0079" cy="164.554" width="34.02" height="19.8425"/>
			<g id="shadow1-20" v:groupContext="shadow" v:shadowOffsetX="1.44" v:shadowOffsetY="-1.44" v:shadowType="1"
					transform="matrix(1,0,0,1,1.44,1.44)" class="st1">
				<rect x="0" y="154.633" width="34.0157" height="19.8425" class="st2"/>
			</g>
			<rect x="0" y="154.633" width="34.0157" height="19.8425" class="st3"/>
			<text x="3.85" y="166.95" class="st6" v:langID="1033"><v:paragraph v:horizAlign="1"/><v:tabList/>U<tspan class="st7"
						v:langID="1031">I</tspan><tspan class="st7" v:langID="1031">/</tspan><tspan class="st7" v:langID="1031">V</tspan>iew</text>		</g>
		<g id="shape2-28" v:mID="2" v:groupContext="shape" transform="translate(34.2657,-96.2727)">
			<title>Rectangle.2</title>
			<desc>Model</desc>
			<v:userDefs>
				<v:ud v:nameU="visVersion" v:val="VT0(14):26"/>
				<v:ud v:nameU="msvThemeColors" v:val="VT0(36):26"/>
				<v:ud v:nameU="msvThemeEffects" v:val="VT0(16):26"/>
			</v:userDefs>
			<v:textBlock v:margins="rect(4,4,4,4)" v:tabSpace="42.5197"/>
			<v:textRect cx="46.063" cy="164.554" width="92.13" height="19.8425"/>
			<g id="shadow2-29" v:groupContext="shadow" v:shadowOffsetX="1.44" v:shadowOffsetY="-1.44" v:shadowType="1"
					transform="matrix(1,0,0,1,1.44,1.44)" class="st1">
				<rect x="0" y="154.633" width="92.126" height="19.8425" class="st2"/>
			</g>
			<rect x="0" y="154.633" width="92.126" height="19.8425" class="st3"/>
			<text x="35.52" y="166.95" class="st6" v:langID="1031"><v:paragraph v:horizAlign="1"/><v:tabList/>Model</text>		</g>
		<g id="shape3-34" v:mID="3" v:groupContext="shape" transform="translate(112.219,-120.367)">
			<title>Rectangle.3</title>
			<desc>Storage Manager</desc>
			<v:userDefs>
				<v:ud v:nameU="visVersion" v:val="VT0(14):26"/>
				<v:ud v:nameU="msvThemeColors" v:val="VT0(36):26"/>
				<v:ud v:nameU="msvThemeEffects" v:val="VT0(16):26"/>
			</v:userDefs>
			<v:textBlock v:margins="rect(1,1,1,1)" v:tabSpace="42.5197"/>
			<v:textRect cx="21.2598" cy="164.554" width="42.52" height="19.8425"/>
			<g id="shadow3-35" v:groupContext="shadow" v:shadowOffsetX="1.44" v:shadowOffsetY="-1.44" v:shadowType="1"
					transform="matrix(1,0,0,1,1.44,1.44)" class="st1">
				<rect x="0" y="154.633" width="42.5197" height="19.8425" class="st2"/>
			</g>
			<rect x="0" y="154.633" width="42.5197" height="19.8425" class="st3"/>
			<text x="8.79" y="162.15" class="st6" v:langID="1031"><v:paragraph v:horizAlign="1"/><v:tabList/>Storage <tspan
						x="6.64" dy="1.2em" class="st7">Manager</tspan></text>		</g>
		<g id="shape5-41" v:mID="5" v:groupContext="shape" transform="translate(0.25,-94.8554)">
			<title>Sheet.5</title>
			<desc>Front-End</desc>
			<v:userDefs>
				<v:ud v:nameU="msvThemeColors" v:val="VT0(36):26"/>
				<v:ud v:nameU="msvThemeEffects" v:val="VT0(16):26"/>
			</v:userDefs>
			<v:textBlock v:margins="rect(4,4,4,4)" v:tabSpace="42.5197"/>
			<v:textRect cx="17.0079" cy="153.216" width="34.02" height="42.5197"/>
			<rect x="0" y="131.956" width="34.0157" height="42.5197" class="st8"/>
			<text x="4" y="150.22" class="st9" v:langID="1031"><v:paragraph/><v:tabList/>Front-<tspan x="4" dy="1.2em" class="st7">End</tspan></text>		</g>
		<g id="shape6-45" v:mID="6" v:groupContext="shape" transform="translate(0.25,-9.81598)">
			<title>Sheet.6</title>
			<desc>Back-End or Cloud</desc>
			<v:userDefs>
				<v:ud v:nameU="msvThemeColors" v:val="VT0(36):26"/>
				<v:ud v:nameU="msvThemeEffects" v:val="VT0(16):26"/>
			</v:userDefs>
			<v:textBlock v:margins="rect(4,4,4,4)" v:tabSpace="42.5197"/>
			<v:textRect cx="18.4252" cy="153.216" width="36.86" height="42.5197"/>
			<rect x="0" y="131.956" width="36.8504" height="42.5197" class="st8"/>
			<text x="4" y="144.22" class="st9" v:langID="1031"><v:paragraph/><v:tabList/>Back-<tspan x="4" dy="1.2em" class="st7">End or </tspan><tspan
						x="4" dy="1.2em" class="st7">Cloud</tspan></text>		</g>
		<g id="shape10-50" v:mID="10" v:groupContext="shape" transform="translate(-70.7609,93.7933) rotate(-90) scale(-1,1)">
			<title>45 degree single</title>
			<v:userDefs>
				<v:ud v:nameU="visVersion" v:val="VT0(14):26"/>
				<v:ud v:nameU="msvThemeColors" v:val="VT0(36):26"/>
				<v:ud v:nameU="msvThemeEffects" v:val="VT0(16):26"/>
			</v:userDefs>
			<g id="shadow10-51" v:groupContext="shadow" v:shadowOffsetX="1.44" v:shadowOffsetY="-1.44" v:shadowType="1"
					transform="matrix(1,0,0,1,1.44,1.44)" class="st1">
				<path d="M0 170.22 L4.25 165.97 L4.25 168.78 L22.68 168.78 L22.68 171.67 L4.25 171.67 L4.25 174.48 L0 170.22 Z"
						class="st2"/>
			</g>
			<path d="M0 170.22 L4.25 165.97 L4.25 168.78 L22.68 168.78 L22.68 171.67 L4.25 171.67 L4.25 174.48 L0 170.22 Z"
					class="st10"/>
		</g>
		<g id="shape11-56" v:mID="11" v:groupContext="shape" transform="translate(59.0689,-66.5089)">
			<title>Sheet.11</title>
			<desc>Load app</desc>
			<v:userDefs>
				<v:ud v:nameU="msvThemeColors" v:val="VT0(36):26"/>
				<v:ud v:nameU="msvThemeEffects" v:val="VT0(16):26"/>
			</v:userDefs>
			<v:textBlock v:margins="rect(4,4,4,4)" v:tabSpace="42.5197"/>
			<v:textRect cx="19.1339" cy="168.806" width="38.27" height="11.3386"/>
			<rect x="0" y="163.137" width="38.2677" height="11.3386" class="st8"/>
			<text x="4.3" y="171.21" class="st6" v:langID="1031"><v:paragraph v:horizAlign="1"/><v:tabList/>Load app</text>		</g>
		<g id="shape12-59" v:mID="12" v:groupContext="shape" transform="translate(54.1083,-145.879)">
			<title>Sheet.12</title>
			<desc>Front-End App with Local Storage</desc>
			<v:userDefs>
				<v:ud v:nameU="msvThemeColors" v:val="VT0(36):26"/>
				<v:ud v:nameU="msvThemeEffects" v:val="VT0(16):26"/>
			</v:userDefs>
			<v:textBlock v:margins="rect(4,4,4,4)" v:tabSpace="42.5197"/>
			<v:textRect cx="42.5197" cy="160.302" width="85.04" height="28.3465"/>
			<rect x="0" y="146.129" width="85.0394" height="28.3465" class="st8"/>
			<text x="12.48" y="157.3" class="st11" v:langID="1031"><v:paragraph v:horizAlign="1"/><v:tabList/>Front-End App <tspan
						x="4.38" dy="1.2em" class="st7">with Local Storage</tspan></text>		</g>
		<g id="shape15-63" v:mID="15" v:groupContext="shape" transform="translate(268.124,-22.0652)">
			<title>Rectangle.15</title>
			<desc>Data Store</desc>
			<v:userDefs>
				<v:ud v:nameU="visVersion" v:val="VT0(14):26"/>
				<v:ud v:nameU="msvThemeColors" v:val="VT0(36):26"/>
				<v:ud v:nameU="msvThemeEffects" v:val="VT0(16):26"/>
			</v:userDefs>
			<v:textBlock v:margins="rect(1,1,1,1)" v:tabSpace="42.5197"/>
			<v:textRect cx="18.4252" cy="164.554" width="36.86" height="19.8425"/>
			<g id="shadow15-64" v:groupContext="shadow" v:shadowOffsetX="1.44" v:shadowOffsetY="-1.44" v:shadowType="1"
					transform="matrix(1,0,0,1,1.44,1.44)" class="st1">
				<rect x="0" y="154.633" width="36.8504" height="19.8425" class="st2"/>
			</g>
			<rect x="0" y="154.633" width="36.8504" height="19.8425" class="st12"/>
			<text x="1.22" y="166.95" class="st6" v:langID="1031"><v:paragraph v:horizAlign="1"/><v:tabList/>Data Store</text>		</g>
		<g id="shape16-70" v:mID="16" v:groupContext="shape" transform="translate(191.589,-145.879)">
			<title>Sheet.16</title>
			<desc>Front-End App with Cloud Storage</desc>
			<v:userDefs>
				<v:ud v:nameU="msvThemeColors" v:val="VT0(36):26"/>
				<v:ud v:nameU="msvThemeEffects" v:val="VT0(16):26"/>
			</v:userDefs>
			<v:textBlock v:margins="rect(4,4,4,4)" v:tabSpace="42.5197"/>
			<v:textRect cx="43.937" cy="160.302" width="87.88" height="28.3465"/>
			<rect x="0" y="146.129" width="87.874" height="28.3465" class="st8"/>
			<text x="13.9" y="157.3" class="st11" v:langID="1031"><v:paragraph v:horizAlign="1"/><v:tabList/>Front-End App <tspan
						x="4.46" dy="1.2em" class="st7">with Cloud Storage</tspan></text>		</g>
		<g id="shape28-74" v:mID="28" v:groupContext="shape" transform="translate(465.277,62.6122) rotate(90)">
			<title>45 degree double</title>
			<v:userDefs>
				<v:ud v:nameU="visVersion" v:val="VT0(14):26"/>
				<v:ud v:nameU="msvThemeColors" v:val="VT0(36):26"/>
				<v:ud v:nameU="msvThemeEffects" v:val="VT0(16):26"/>
			</v:userDefs>
			<g id="shadow28-75" v:groupContext="shadow" v:shadowOffsetX="1.44" v:shadowOffsetY="-1.44" v:shadowType="1"
					transform="matrix(1,0,0,1,1.44,-1.44)" class="st1">
				<path d="M0 171.64 L2.83 168.81 L2.83 170.68 L49.61 170.68 L49.61 168.81 L52.44 171.64 L49.61 174.48 L49.61 172.6
							 L2.83 172.6 L2.83 174.48 L0 171.64 Z" class="st2"/>
			</g>
			<path d="M0 171.64 L2.83 168.81 L2.83 170.68 L49.61 170.68 L49.61 168.81 L52.44 171.64 L49.61 174.48 L49.61 172.6 L2.83
						 172.6 L2.83 174.48 L0 171.64 Z" class="st13"/>
		</g>
		<g id="shape29-80" v:mID="29" v:groupContext="shape" transform="translate(272.376,-66.5089)">
			<title>Sheet.29</title>
			<desc>XHR</desc>
			<v:userDefs>
				<v:ud v:nameU="msvThemeColors" v:val="VT0(36):26"/>
				<v:ud v:nameU="msvThemeEffects" v:val="VT0(16):26"/>
			</v:userDefs>
			<v:textBlock v:margins="rect(4,4,4,4)" v:tabSpace="42.5197"/>
			<v:textRect cx="11.3386" cy="168.806" width="22.68" height="11.3386"/>
			<rect x="0" y="163.137" width="22.6772" height="11.3386" class="st8"/>
			<text x="4.6" y="171.21" class="st6" v:langID="1031"><v:paragraph v:horizAlign="1"/><v:tabList/>XHR</text>		</g>
		<g id="shape23-83" v:mID="23" v:groupContext="shape" transform="translate(134.896,-92.0207)">
			<title>Rectangle.23</title>
			<desc>Data Store</desc>
			<v:userDefs>
				<v:ud v:nameU="visVersion" v:val="VT0(14):26"/>
				<v:ud v:nameU="msvThemeColors" v:val="VT0(36):26"/>
				<v:ud v:nameU="msvThemeEffects" v:val="VT0(16):26"/>
			</v:userDefs>
			<v:textBlock v:margins="rect(1,1,1,1)" v:tabSpace="42.5197"/>
			<v:textRect cx="11.5866" cy="163.846" width="23.18" height="21.2598"/>
			<g id="shadow23-84" v:groupContext="shadow" v:shadowOffsetX="1.44" v:shadowOffsetY="-1.44" v:shadowType="1"
					transform="matrix(1,0,0,1,1.44,1.44)" class="st1">
				<rect x="0" y="153.216" width="23.1732" height="21.2598" class="st2"/>
			</g>
			<rect x="0" y="153.216" width="23.1732" height="21.2598" class="st12"/>
			<text x="3.95" y="161.45" class="st6" v:langID="1031"><v:paragraph v:horizAlign="1"/><v:tabList/>Data <tspan x="2.91"
						dy="1.2em" class="st7">Store</tspan></text>		</g>
		<g id="shape43-90" v:mID="43" v:groupContext="shape" transform="translate(73.3839,-120.651)">
			<title>Rectangle.43</title>
			<desc>Controller</desc>
			<v:userDefs>
				<v:ud v:nameU="visVersion" v:val="VT0(14):26"/>
				<v:ud v:nameU="msvThemeColors" v:val="VT0(36):26"/>
				<v:ud v:nameU="msvThemeEffects" v:val="VT0(16):26"/>
			</v:userDefs>
			<v:textBlock v:margins="rect(1,1,1,1)" v:tabSpace="42.5197"/>
			<v:textRect cx="17.0079" cy="164.554" width="34.02" height="19.8425"/>
			<g id="shadow43-91" v:groupContext="shadow" v:shadowOffsetX="1.44" v:shadowOffsetY="-1.44" v:shadowType="1"
					transform="matrix(1,0,0,1,1.44,1.44)" class="st1">
				<rect x="0" y="154.633" width="34.0157" height="19.8425" class="st2"/>
			</g>
			<rect x="0" y="154.633" width="34.0157" height="19.8425" class="st3"/>
			<text x="2.65" y="166.65" class="st14" v:langID="1031"><v:paragraph v:horizAlign="1"/><v:tabList/>Controller</text>		</g>
		<g id="shape13-96" v:mID="13" v:groupContext="shape" transform="translate(174.581,-89.1861)">
			<title>Sheet.13</title>
			<v:userDefs>
				<v:ud v:nameU="msvThemeColors" v:val="VT0(36):26"/>
				<v:ud v:nameU="msvThemeEffects" v:val="VT0(16):26"/>
			</v:userDefs>
			<g id="shadow13-97" v:groupContext="shadow" v:shadowOffsetX="1.44" v:shadowOffsetY="-1.44" v:shadowType="1"
					transform="matrix(1,0,0,1,1.44,1.44)" class="st1">
				<path d="M0 174.48 L99.21 174.48 L99.21 147.55 L127.56 147.55 L127.56 120.62 L0 120.62 L0 174.48 Z" class="st2"/>
			</g>
			<path d="M0 174.48 L99.21 174.48 L99.21 147.55 L127.56 147.55 L127.56 120.62 L0 120.62 L0 174.48 Z" class="st3"/>
		</g>
		<g id="shape14-101" v:mID="14" v:groupContext="shape" transform="translate(177.415,-119.233)">
			<title>Rectangle.14</title>
			<desc>UI/View</desc>
			<v:userDefs>
				<v:ud v:nameU="visVersion" v:val="VT0(14):26"/>
				<v:ud v:nameU="msvThemeColors" v:val="VT0(36):26"/>
				<v:ud v:nameU="msvThemeEffects" v:val="VT0(16):26"/>
			</v:userDefs>
			<v:textBlock v:margins="rect(1,1,1,1)" v:tabSpace="42.5197"/>
			<v:textRect cx="17.0079" cy="164.554" width="34.02" height="19.8425"/>
			<g id="shadow14-102" v:groupContext="shadow" v:shadowOffsetX="1.44" v:shadowOffsetY="-1.44" v:shadowType="1"
					transform="matrix(1,0,0,1,1.44,1.44)" class="st1">
				<rect x="0" y="154.633" width="34.0157" height="19.8425" class="st2"/>
			</g>
			<rect x="0" y="154.633" width="34.0157" height="19.8425" class="st3"/>
			<text x="3.85" y="166.95" class="st6" v:langID="1033"><v:paragraph v:horizAlign="1"/><v:tabList/>U<tspan class="st7"
						v:langID="1031">I</tspan><tspan class="st7" v:langID="1031">/</tspan><tspan class="st7" v:langID="1031">V</tspan>iew</text>		</g>
		<g id="shape18-110" v:mID="18" v:groupContext="shape" transform="translate(177.415,-94.8554)">
			<title>Rectangle.18</title>
			<desc>Model</desc>
			<v:userDefs>
				<v:ud v:nameU="visVersion" v:val="VT0(14):26"/>
				<v:ud v:nameU="msvThemeColors" v:val="VT0(36):26"/>
				<v:ud v:nameU="msvThemeEffects" v:val="VT0(16):26"/>
			</v:userDefs>
			<v:textBlock v:margins="rect(4,4,4,4)" v:tabSpace="42.5197"/>
			<v:textRect cx="46.063" cy="164.554" width="92.13" height="19.8425"/>
			<g id="shadow18-111" v:groupContext="shadow" v:shadowOffsetX="1.44" v:shadowOffsetY="-1.44" v:shadowType="1"
					transform="matrix(1,0,0,1,1.44,1.44)" class="st1">
				<rect x="0" y="154.633" width="92.126" height="19.8425" class="st2"/>
			</g>
			<rect x="0" y="154.633" width="92.126" height="19.8425" class="st3"/>
			<text x="35.52" y="166.95" class="st6" v:langID="1031"><v:paragraph v:horizAlign="1"/><v:tabList/>Model</text>		</g>
		<g id="shape45-116" v:mID="45" v:groupContext="shape" transform="translate(255.368,-118.95)">
			<title>Rectangle.45</title>
			<desc>Storage Manager</desc>
			<v:userDefs>
				<v:ud v:nameU="visVersion" v:val="VT0(14):26"/>
				<v:ud v:nameU="msvThemeColors" v:val="VT0(36):26"/>
				<v:ud v:nameU="msvThemeEffects" v:val="VT0(16):26"/>
			</v:userDefs>
			<v:textBlock v:margins="rect(1,1,1,1)" v:tabSpace="42.5197"/>
			<v:textRect cx="21.2598" cy="164.554" width="42.52" height="19.8425"/>
			<g id="shadow45-117" v:groupContext="shadow" v:shadowOffsetX="1.44" v:shadowOffsetY="-1.44" v:shadowType="1"
					transform="matrix(1,0,0,1,1.44,1.44)" class="st1">
				<rect x="0" y="154.633" width="42.5197" height="19.8425" class="st2"/>
			</g>
			<rect x="0" y="154.633" width="42.5197" height="19.8425" class="st3"/>
			<text x="8.79" y="162.15" class="st6" v:langID="1031"><v:paragraph v:horizAlign="1"/><v:tabList/>Storage <tspan
						x="6.64" dy="1.2em" class="st7">Manager</tspan></text>		</g>
		<g id="shape46-123" v:mID="46" v:groupContext="shape" transform="translate(216.533,-119.233)">
			<title>Rectangle.46</title>
			<desc>Controller</desc>
			<v:userDefs>
				<v:ud v:nameU="visVersion" v:val="VT0(14):26"/>
				<v:ud v:nameU="msvThemeColors" v:val="VT0(36):26"/>
				<v:ud v:nameU="msvThemeEffects" v:val="VT0(16):26"/>
			</v:userDefs>
			<v:textBlock v:margins="rect(1,1,1,1)" v:tabSpace="42.5197"/>
			<v:textRect cx="17.0079" cy="164.554" width="34.02" height="19.8425"/>
			<g id="shadow46-124" v:groupContext="shadow" v:shadowOffsetX="1.44" v:shadowOffsetY="-1.44" v:shadowType="1"
					transform="matrix(1,0,0,1,1.44,1.44)" class="st1">
				<rect x="0" y="154.633" width="34.0157" height="19.8425" class="st2"/>
			</g>
			<rect x="0" y="154.633" width="34.0157" height="19.8425" class="st3"/>
			<text x="2.65" y="166.65" class="st14" v:langID="1031"><v:paragraph v:horizAlign="1"/><v:tabList/>Controller</text>		</g>
		<g id="group7-129" transform="translate(37.1004,-1.69)" v:mID="7" v:groupContext="group">
			<v:userDefs>
				<v:ud v:nameU="msvThemeColors" v:val="VT0(36):26"/>
				<v:ud v:nameU="msvThemeEffects" v:val="VT0(16):26"/>
			</v:userDefs>
			<title>Sheet.7</title>
			<g id="shape47-130" v:mID="47" v:groupContext="shape">
				<title>Sheet.47</title>
				<v:userDefs>
					<v:ud v:nameU="msvThemeColors" v:val="VT0(36):26"/>
					<v:ud v:nameU="msvThemeEffects" v:val="VT0(16):26"/>
				</v:userDefs>
				<g id="shadow47-131" v:groupContext="shadow" v:shadowOffsetX="1.44" v:shadowOffsetY="-1.44" v:shadowType="1"
						transform="matrix(1,0,0,1,1.44,1.44)" class="st1">
					<path d="M0 174.48 L92.6 174.48 L92.6 149.34 L119.06 149.34 L119.06 124.21 L0 124.21 L0 174.48 Z" class="st2"/>
				</g>
				<path d="M0 174.48 L92.6 174.48 L92.6 149.34 L119.06 149.34 L119.06 124.21 L0 124.21 L0 174.48 Z" class="st15"/>
			</g>
			<g id="shape48-135" v:mID="48" v:groupContext="shape" transform="translate(2.64567,-28.0441)">
				<title>Rectangle.48</title>
				<desc>UI/View</desc>
				<v:userDefs>
					<v:ud v:nameU="visVersion" v:val="VT0(14):26"/>
					<v:ud v:nameU="msvThemeColors" v:val="VT0(36):26"/>
					<v:ud v:nameU="msvThemeEffects" v:val="VT0(16):26"/>
				</v:userDefs>
				<v:textBlock v:margins="rect(1,1,1,1)" v:tabSpace="42.5197"/>
				<v:textRect cx="15.874" cy="165.216" width="31.75" height="18.5197"/>
				<g id="shadow48-136" v:groupContext="shadow" v:shadowOffsetX="1.44" v:shadowOffsetY="-1.44" v:shadowType="1"
						transform="matrix(1,0,0,1,1.44,1.44)" class="st1">
					<rect x="0" y="155.956" width="31.748" height="18.5197" class="st2"/>
				</g>
				<rect x="0" y="155.956" width="31.748" height="18.5197" class="st15"/>
				<text x="2.72" y="167.62" class="st16" v:langID="1033"><v:paragraph v:horizAlign="1"/><v:tabList/>U<tspan
							class="st7" v:langID="1031">I</tspan><tspan class="st7" v:langID="1031">/</tspan><tspan class="st7"
							v:langID="1031">V</tspan>iew</text>			</g>
			<g id="shape49-144" v:mID="49" v:groupContext="shape" transform="translate(2.64567,-5.29134)">
				<title>Rectangle.49</title>
				<desc>Model</desc>
				<v:userDefs>
					<v:ud v:nameU="visVersion" v:val="VT0(14):26"/>
					<v:ud v:nameU="msvThemeColors" v:val="VT0(36):26"/>
					<v:ud v:nameU="msvThemeEffects" v:val="VT0(16):26"/>
				</v:userDefs>
				<v:textBlock v:margins="rect(4,4,4,4)" v:tabSpace="42.5197"/>
				<v:textRect cx="42.9921" cy="165.216" width="85.99" height="18.5197"/>
				<g id="shadow49-145" v:groupContext="shadow" v:shadowOffsetX="1.44" v:shadowOffsetY="-1.44" v:shadowType="1"
						transform="matrix(1,0,0,1,1.44,1.44)" class="st1">
					<rect x="0" y="155.956" width="85.9843" height="18.5197" class="st2"/>
				</g>
				<rect x="0" y="155.956" width="85.9843" height="18.5197" class="st15"/>
				<text x="32.45" y="167.62" class="st16" v:langID="1031"><v:paragraph v:horizAlign="1"/><v:tabList/>Model</text>			</g>
			<g id="shape50-150" v:mID="50" v:groupContext="shape" transform="translate(75.4016,-27.7795)">
				<title>Rectangle.50</title>
				<desc>Storage Manager</desc>
				<v:userDefs>
					<v:ud v:nameU="visVersion" v:val="VT0(14):26"/>
					<v:ud v:nameU="msvThemeColors" v:val="VT0(36):26"/>
					<v:ud v:nameU="msvThemeEffects" v:val="VT0(16):26"/>
				</v:userDefs>
				<v:textBlock v:margins="rect(1,1,1,1)" v:tabSpace="42.5197"/>
				<v:textRect cx="19.8425" cy="165.216" width="39.69" height="18.5197"/>
				<g id="shadow50-151" v:groupContext="shadow" v:shadowOffsetX="1.44" v:shadowOffsetY="-1.44" v:shadowType="1"
						transform="matrix(1,0,0,1,1.44,1.44)" class="st1">
					<rect x="0" y="155.956" width="39.685" height="18.5197" class="st2"/>
				</g>
				<rect x="0" y="155.956" width="39.685" height="18.5197" class="st15"/>
				<text x="7.37" y="162.82" class="st16" v:langID="1031"><v:paragraph v:horizAlign="1"/><v:tabList/>Storage <tspan
							x="5.22" dy="1.2em" class="st7">Manager</tspan></text>			</g>
			<g id="shape51-157" v:mID="51" v:groupContext="shape" transform="translate(39.1559,-28.0441)">
				<title>Rectangle.51</title>
				<desc>Controller</desc>
				<v:userDefs>
					<v:ud v:nameU="visVersion" v:val="VT0(14):26"/>
					<v:ud v:nameU="msvThemeColors" v:val="VT0(36):26"/>
					<v:ud v:nameU="msvThemeEffects" v:val="VT0(16):26"/>
				</v:userDefs>
				<v:textBlock v:margins="rect(1,1,1,1)" v:tabSpace="42.5197"/>
				<v:textRect cx="15.874" cy="165.216" width="31.75" height="18.5197"/>
				<g id="shadow51-158" v:groupContext="shadow" v:shadowOffsetX="1.44" v:shadowOffsetY="-1.44" v:shadowType="1"
						transform="matrix(1,0,0,1,1.44,1.44)" class="st1">
					<rect x="0" y="155.956" width="31.748" height="18.5197" class="st2"/>
				</g>
				<rect x="0" y="155.956" width="31.748" height="18.5197" class="st15"/>
				<text x="1.52" y="167.32" class="st17" v:langID="1031"><v:paragraph v:horizAlign="1"/><v:tabList/>Controller</text>			</g>
		</g>
		<g id="group8-163" transform="translate(168.911,-15.6585)" v:mID="8" v:groupContext="group">
			<v:userDefs>
				<v:ud v:nameU="msvThemeColors" v:val="VT0(36):26"/>
				<v:ud v:nameU="msvThemeEffects" v:val="VT0(16):26"/>
			</v:userDefs>
			<title>Sheet.8</title>
			<g id="shape9-164" v:mID="9" v:groupContext="shape">
				<title>Sheet.9</title>
				<v:userDefs>
					<v:ud v:nameU="msvThemeColors" v:val="VT0(36):26"/>
					<v:ud v:nameU="msvThemeEffects" v:val="VT0(16):26"/>
				</v:userDefs>
				<g id="shadow9-165" v:groupContext="shadow" v:shadowOffsetX="1.44" v:shadowOffsetY="-1.44" v:shadowType="1"
						transform="matrix(1,0,0,1,1.44,1.44)" class="st1">
					<path d="M0 174.48 L67.24 174.48 L67.24 156.22 L86.46 156.22 L86.46 137.97 L0 137.97 L0 174.48 Z" class="st2"/>
				</g>
				<path d="M0 174.48 L67.24 174.48 L67.24 156.22 L86.46 156.22 L86.46 137.97 L0 137.97 L0 174.48 Z" class="st15"/>
			</g>
			<g id="shape52-169" v:mID="52" v:groupContext="shape" transform="translate(1.92126,-20.3654)">
				<title>Rectangle.48</title>
				<desc>UI/View</desc>
				<v:userDefs>
					<v:ud v:nameU="visVersion" v:val="VT0(14):26"/>
					<v:ud v:nameU="msvThemeColors" v:val="VT0(36):26"/>
					<v:ud v:nameU="msvThemeEffects" v:val="VT0(16):26"/>
				</v:userDefs>
				<v:textBlock v:margins="rect(1,1,1,1)" v:tabSpace="42.5197"/>
				<v:textRect cx="11.5276" cy="167.751" width="23.06" height="13.4488"/>
				<g id="shadow52-170" v:groupContext="shadow" v:shadowOffsetX="1.44" v:shadowOffsetY="-1.44" v:shadowType="1"
						transform="matrix(1,0,0,1,1.44,1.44)" class="st1">
					<rect x="0" y="161.027" width="23.0551" height="13.4488" class="st2"/>
				</g>
				<rect x="0" y="161.027" width="23.0551" height="13.4488" class="st15"/>
				<text x="1.66" y="169.55" class="st18" v:langID="1033"><v:paragraph v:horizAlign="1"/><v:tabList/>U<tspan
							class="st7" v:langID="1031">I</tspan><tspan class="st7" v:langID="1031">/</tspan><tspan class="st7"
							v:langID="1031">V</tspan>iew</text>			</g>
			<g id="shape53-178" v:mID="53" v:groupContext="shape" transform="translate(1.92126,-3.84252)">
				<title>Rectangle.49</title>
				<desc>Model</desc>
				<v:userDefs>
					<v:ud v:nameU="visVersion" v:val="VT0(14):26"/>
					<v:ud v:nameU="msvThemeColors" v:val="VT0(36):26"/>
					<v:ud v:nameU="msvThemeEffects" v:val="VT0(16):26"/>
				</v:userDefs>
				<v:textBlock v:margins="rect(4,4,4,4)" v:tabSpace="42.5197"/>
				<v:textRect cx="31.2205" cy="167.751" width="62.45" height="13.4488"/>
				<g id="shadow53-179" v:groupContext="shadow" v:shadowOffsetX="1.44" v:shadowOffsetY="-1.44" v:shadowType="1"
						transform="matrix(1,0,0,1,1.44,1.44)" class="st1">
					<rect x="0" y="161.027" width="62.4409" height="13.4488" class="st2"/>
				</g>
				<rect x="0" y="161.027" width="62.4409" height="13.4488" class="st15"/>
				<text x="23.32" y="169.55" class="st18" v:langID="1031"><v:paragraph v:horizAlign="1"/><v:tabList/>Model</text>			</g>
			<g id="shape54-184" v:mID="54" v:groupContext="shape" transform="translate(54.7559,-20.1732)">
				<title>Rectangle.50</title>
				<desc>Storage Manager</desc>
				<v:userDefs>
					<v:ud v:nameU="visVersion" v:val="VT0(14):26"/>
					<v:ud v:nameU="msvThemeColors" v:val="VT0(36):26"/>
					<v:ud v:nameU="msvThemeEffects" v:val="VT0(16):26"/>
				</v:userDefs>
				<v:textBlock v:margins="rect(1,1,1,1)" v:tabSpace="42.5197"/>
				<v:textRect cx="14.4094" cy="167.751" width="28.82" height="13.4488"/>
				<g id="shadow54-185" v:groupContext="shadow" v:shadowOffsetX="1.44" v:shadowOffsetY="-1.44" v:shadowType="1"
						transform="matrix(1,0,0,1,1.44,1.44)" class="st1">
					<rect x="0" y="161.027" width="28.8189" height="13.4488" class="st2"/>
				</g>
				<rect x="0" y="161.027" width="28.8189" height="13.4488" class="st15"/>
				<text x="5.06" y="165.95" class="st18" v:langID="1031"><v:paragraph v:horizAlign="1"/><v:tabList/>Storage <tspan
							x="3.44" dy="1.2em" class="st7">Manager</tspan></text>			</g>
			<g id="shape55-191" v:mID="55" v:groupContext="shape" transform="translate(28.4346,-20.3654)">
				<title>Rectangle.51</title>
				<desc>Controller</desc>
				<v:userDefs>
					<v:ud v:nameU="visVersion" v:val="VT0(14):26"/>
					<v:ud v:nameU="msvThemeColors" v:val="VT0(36):26"/>
					<v:ud v:nameU="msvThemeEffects" v:val="VT0(16):26"/>
				</v:userDefs>
				<v:textBlock v:margins="rect(1,1,1,1)" v:tabSpace="42.5197"/>
				<v:textRect cx="11.5276" cy="167.751" width="23.06" height="13.4488"/>
				<g id="shadow55-192" v:groupContext="shadow" v:shadowOffsetX="1.44" v:shadowOffsetY="-1.44" v:shadowType="1"
						transform="matrix(1,0,0,1,1.44,1.44)" class="st1">
					<rect x="0" y="161.027" width="23.0551" height="13.4488" class="st2"/>
				</g>
				<rect x="0" y="161.027" width="23.0551" height="13.4488" class="st15"/>
				<text x="1.76" y="165.95" class="st18" v:langID="1031"><v:paragraph v:horizAlign="1"/><v:tabList/>Controll<tspan
							x="8.99" dy="1.2em" class="st7">er</tspan></text>			</g>
		</g>
		<g id="shape56-198" v:mID="56" v:groupContext="shape" transform="translate(38.373,93.7933) rotate(-90) scale(-1,1)">
			<title>45 degree single.56</title>
			<v:userDefs>
				<v:ud v:nameU="visVersion" v:val="VT0(14):26"/>
				<v:ud v:nameU="msvThemeColors" v:val="VT0(36):26"/>
				<v:ud v:nameU="msvThemeEffects" v:val="VT0(16):26"/>
			</v:userDefs>
			<g id="shadow56-199" v:groupContext="shadow" v:shadowOffsetX="1.44" v:shadowOffsetY="-1.44" v:shadowType="1"
					transform="matrix(1,0,0,1,1.44,1.44)" class="st1">
				<path d="M0 170.22 L4.25 165.97 L4.25 168.78 L22.68 168.78 L22.68 171.67 L4.25 171.67 L4.25 174.48 L0 170.22 Z"
						class="st2"/>
			</g>
			<path d="M0 170.22 L4.25 165.97 L4.25 168.78 L22.68 168.78 L22.68 171.67 L4.25 171.67 L4.25 174.48 L0 170.22 Z"
					class="st10"/>
		</g>
		<g id="shape57-203" v:mID="57" v:groupContext="shape" transform="translate(168.911,-66.5089)">
			<title>Sheet.57</title>
			<desc>Load app</desc>
			<v:userDefs>
				<v:ud v:nameU="msvThemeColors" v:val="VT0(36):26"/>
				<v:ud v:nameU="msvThemeEffects" v:val="VT0(16):26"/>
			</v:userDefs>
			<v:textBlock v:margins="rect(4,4,4,4)" v:tabSpace="42.5197"/>
			<v:textRect cx="19.1339" cy="168.806" width="38.27" height="11.3386"/>
			<rect x="0" y="163.137" width="38.2677" height="11.3386" class="st8"/>
			<text x="4.3" y="171.21" class="st6" v:langID="1031"><v:paragraph v:horizAlign="1"/><v:tabList/>Load app</text>		</g>
	</g>
</svg>
