<?xml version="1.0" encoding="UTF-8" standalone="no"?>
<!DOCTYPE svg PUBLIC "-//W3C//DTD SVG 1.0//EN" "http://www.w3.org/TR/2001/REC-SVG-20010904/DTD/svg10.dtd">
<!-- Generated by Microsoft Visio 11.0, SVG Export, v1.0 MDD-Tranformations.svg Page-1 -->
<svg xmlns="http://www.w3.org/2000/svg" xmlns:xlink="http://www.w3.org/1999/xlink" xmlns:ev="http://www.w3.org/2001/xml-events"
		xmlns:v="http://schemas.microsoft.com/visio/2003/SVGExtensions/" width="4.23951in" height="1.90351in"
		viewBox="0 0 305.245 137.053" xml:space="preserve" color-interpolation-filters="sRGB" class="st8">
	<v:documentProperties v:langID="1033" v:metric="true" v:viewMarkup="false"/>

	<style type="text/css">
	<![CDATA[
		.st1 {fill:#dde2cd;stroke:none;stroke-linecap:round;stroke-linejoin:round;stroke-width:0.24}
		.st2 {fill:#000000;font-family:Calibri;font-size:0.666664em}
		.st3 {font-size:1em}
		.st4 {fill:#dde2cd;stroke:#000000;stroke-linecap:round;stroke-linejoin:round;stroke-width:0.24}
		.st5 {fill:#a5a5a5;stroke:#000000;stroke-linecap:round;stroke-linejoin:round;stroke-width:0.24}
		.st6 {fill:none;stroke:none;stroke-linecap:round;stroke-linejoin:round;stroke-width:0.75}
		.st7 {fill:#000000;font-family:Calibri;font-size:0.499992em}
		.st8 {fill:none;fill-rule:evenodd;font-size:12px;overflow:visible;stroke-linecap:square;stroke-miterlimit:3}
	]]>
	</style>

	<g v:mID="0" v:index="1" v:groupContext="foregroundPage">
		<title>Page-1</title>
		<v:pageProperties v:drawingScale="0.0393701" v:pageScale="0.0393701" v:drawingUnits="24" v:shadowOffsetX="8.50394"
				v:shadowOffsetY="-8.50394"/>
		<g id="shape16-1" v:mID="16" v:groupContext="shape" transform="translate(191.818,-0.24)">
			<title>Rectangle.16</title>
			<desc>Different Platforms</desc>
			<v:userDefs>
				<v:ud v:nameU="visVersion" v:val="VT0(14):26"/>
			</v:userDefs>
			<v:textBlock v:margins="rect(4,4,4,4)" v:tabSpace="42.5197" v:verticalAlign="0"/>
			<v:textRect cx="20.1969" cy="69.0215" width="40.4" height="136.063"/>
			<rect x="0" y="0.99" width="40.3937" height="136.063" class="st1"/>
			<text x="5.56" y="12.19" class="st2" v:langID="1031"><v:paragraph v:horizAlign="1"/><v:tabList/>Different <tspan
						x="4.47" dy="1.2em" class="st3">Platforms</tspan></text>		</g>
		<g id="shape15-5" v:mID="15" v:groupContext="shape" transform="translate(80.5578,-0.24)">
			<title>Rectangle.15</title>
			<desc>Different Solutions (Design Choices)</desc>
			<v:userDefs>
				<v:ud v:nameU="visVersion" v:val="VT0(14):26"/>
			</v:userDefs>
			<v:textBlock v:margins="rect(4,4,4,4)" v:tabSpace="42.5197" v:verticalAlign="0"/>
			<v:textRect cx="19.1339" cy="69.7302" width="38.27" height="134.646"/>
			<rect x="0" y="2.40732" width="38.2677" height="134.646" class="st1"/>
			<text x="4.5" y="13.61" class="st2" v:langID="1031"><v:paragraph v:horizAlign="1"/><v:tabList/>Different <tspan
						x="4.13" dy="1.2em" class="st3">Solutions </tspan><tspan x="7" dy="1.2em" class="st3">(</tspan>Design <tspan
						x="5.41" dy="1.2em" class="st3">Choices</tspan>)</text>		</g>
		<g id="shape2-11" v:mID="2" v:groupContext="shape" transform="translate(1.18767,-27.1691)">
			<title>Star 7</title>
			<desc>Conceptual Model</desc>
			<v:userDefs>
				<v:ud v:nameU="visVersion" v:val="VT0(14):26"/>
			</v:userDefs>
			<v:textBlock v:margins="rect(4,4,4,4)" v:tabSpace="42.5197"/>
			<v:textRect cx="36.8504" cy="100.203" width="49.14" height="49.1339"/>
			<path d="M26.63 80.34 L6.54 77.95 L13.28 96.74 L-0.95 110.75 L17.95 117.19 L20.03 137.05 L36.85 126.3 L53.67 137.05 L55.75
						 117.19 L74.65 110.75 L60.42 96.74 L67.16 77.95 L47.34 80.34 L36.85 63.35 L26.63 80.34 Z" class="st4"/>
			<text x="18.45" y="97.8" class="st2" v:langID="1031"><v:paragraph v:horizAlign="1"/><v:tabList/>Conceptual <tspan
						x="26.31" dy="1.2em" class="st3">Model</tspan></text>		</g>
		<g id="shape4-15" v:mID="4" v:groupContext="shape" transform="translate(154.654,-13.1911) rotate(18.4349) scale(-1,1)">
			<title>45 degree single.4</title>
			<v:userDefs>
				<v:ud v:nameU="visVersion" v:val="VT0(14):26"/>
			</v:userDefs>
			<path d="M0 131.23 L5.83 125.4 L5.83 129.25 L26.89 129.25 L26.89 133.21 L5.83 133.21 L5.83 137.05 L0 131.23 Z"
					class="st5"/>
		</g>
		<g id="shape5-17" v:mID="5" v:groupContext="shape" transform="translate(237.881,-99.4526)">
			<title>Rectangle</title>
			<desc>Plain JavaScript Class Model</desc>
			<v:userDefs>
				<v:ud v:nameU="visVersion" v:val="VT0(14):26"/>
			</v:userDefs>
			<v:textBlock v:margins="rect(4,4,4,4)" v:tabSpace="42.5197"/>
			<v:textRect cx="32.5984" cy="125.006" width="65.2" height="24.0945"/>
			<rect x="0" y="112.959" width="65.1969" height="24.0945" class="st4"/>
			<text x="7.58" y="122.61" class="st2" v:langID="1031"><v:paragraph v:horizAlign="1"/><v:tabList/>Plain JavaScript<v:lf/><tspan
						x="13.06" dy="1.2em" class="st3">Class Model</tspan></text>		</g>
		<g id="shape3-21" v:mID="3" v:groupContext="shape" transform="translate(59.8601,-59.6387) rotate(-23.9625) scale(-1,1)">
			<title>45 degree single.3</title>
			<v:userDefs>
				<v:ud v:nameU="visVersion" v:val="VT0(14):26"/>
			</v:userDefs>
			<path d="M0 131.23 L5.83 125.4 L5.83 129.25 L27.92 129.25 L27.92 133.21 L5.83 133.21 L5.83 137.05 L0 131.23 Z"
					class="st5"/>
		</g>
		<g id="shape7-23" v:mID="7" v:groupContext="shape" transform="translate(123.786,-70.7518)">
			<title>Rounded rectangle</title>
			<desc>OO Design Model</desc>
			<v:userDefs>
				<v:ud v:nameU="visVersion" v:val="VT0(14):26"/>
			</v:userDefs>
			<v:textBlock v:margins="rect(4,4,4,4)" v:tabSpace="42.5197"/>
			<v:textRect cx="31.8898" cy="124.12" width="63.78" height="25.8661"/>
			<path d="M50.85 137.05 A12.9332 12.9332 -180 0 0 63.78 124.12 A12.9332 12.9332 -180 0 0 50.85 111.19 L12.93 111.19 A12.9332
						 12.9332 -180 0 0 0 124.12 A12.9332 12.9332 -180 0 0 12.93 137.05 L50.85 137.05 Z" class="st4"/>
			<text x="14.77" y="121.72" class="st2" v:langID="1031"><v:paragraph v:horizAlign="1"/><v:tabList/>OO Design <tspan
						x="21.35" dy="1.2em" class="st3">Model</tspan></text>		</g>
		<g id="shape6-27" v:mID="6" v:groupContext="shape" transform="translate(123.786,-3.07465)">
			<title>Rounded rectangle.6</title>
			<desc>Another Design Model</desc>
			<v:userDefs>
				<v:ud v:nameU="visVersion" v:val="VT0(14):26"/>
			</v:userDefs>
			<v:textBlock v:margins="rect(4,4,4,4)" v:tabSpace="42.5197"/>
			<v:textRect cx="31.8898" cy="124.12" width="63.78" height="25.8661"/>
			<path d="M50.85 137.05 A12.9332 12.9332 -180 0 0 63.78 124.12 A12.9332 12.9332 -180 0 0 50.85 111.19 L12.93 111.19 A12.9332
						 12.9332 -180 0 0 0 124.12 A12.9332 12.9332 -180 0 0 12.93 137.05 L50.85 137.05 Z" class="st4"/>
			<text x="18.54" y="121.72" class="st2" v:langID="1031"><v:paragraph v:horizAlign="1"/><v:tabList/>Another <v:lf/><tspan
						x="9.53" dy="1.2em" class="st3">Design Model</tspan></text>		</g>
		<g id="shape8-31" v:mID="8" v:groupContext="shape" transform="translate(171.829,-86.5678) rotate(-23.9625) scale(-1,1)">
			<title>45 degree single.8</title>
			<v:userDefs>
				<v:ud v:nameU="visVersion" v:val="VT0(14):26"/>
			</v:userDefs>
			<path d="M0 131.23 L5.83 125.4 L5.83 129.25 L27.92 129.25 L27.92 133.21 L5.83 133.21 L5.83 137.05 L0 131.23 Z"
					class="st5"/>
		</g>
		<g id="shape9-33" v:mID="9" v:groupContext="shape" transform="translate(237.881,-70.3975)">
			<title>Rectangle.9</title>
			<desc>Angular2/TS Class Model</desc>
			<v:userDefs>
				<v:ud v:nameU="visVersion" v:val="VT0(14):26"/>
			</v:userDefs>
			<v:textBlock v:margins="rect(4,4,4,4)" v:tabSpace="42.5197"/>
			<v:textRect cx="32.5984" cy="125.006" width="65.2" height="24.0945"/>
			<rect x="0" y="112.959" width="65.1969" height="24.0945" class="st4"/>
			<text x="12.61" y="122.61" class="st2" v:langID="1031"><v:paragraph v:horizAlign="1"/><v:tabList/>Angular2/TS <tspan
						x="13.06" dy="1.2em" class="st3">Class Model</tspan></text>		</g>
		<g id="shape10-37" v:mID="10" v:groupContext="shape" transform="translate(237.881,-39.925)">
			<title>Rectangle.10</title>
			<desc>PHP Class Model</desc>
			<v:userDefs>
				<v:ud v:nameU="visVersion" v:val="VT0(14):26"/>
			</v:userDefs>
			<v:textBlock v:margins="rect(4,4,4,4)" v:tabSpace="42.5197"/>
			<v:textRect cx="32.5984" cy="125.006" width="65.2" height="24.0945"/>
			<rect x="0" y="112.959" width="65.1969" height="24.0945" class="st4"/>
			<text x="5.53" y="127.41" class="st2" v:langID="1031"><v:paragraph v:horizAlign="1"/><v:tabList/>PHP Class Model</text>		</g>
		<g id="shape11-40" v:mID="11" v:groupContext="shape" transform="translate(227.959,-75.2008) scale(-1,1)">
			<title>45 degree single.11</title>
			<v:userDefs>
				<v:ud v:nameU="visVersion" v:val="VT0(14):26"/>
			</v:userDefs>
			<path d="M0 131.23 L5.83 125.4 L5.83 129.25 L26.93 129.25 L26.93 133.21 L5.83 133.21 L5.83 137.05 L0 131.23 Z"
					class="st5"/>
		</g>
		<g id="shape12-42" v:mID="12" v:groupContext="shape" transform="translate(286.524,-34.4389) rotate(27.8973) scale(-1,1)">
			<title>45 degree single.12</title>
			<v:userDefs>
				<v:ud v:nameU="visVersion" v:val="VT0(14):26"/>
			</v:userDefs>
			<path d="M0 131.23 L5.83 125.4 L5.83 129.25 L27.26 129.25 L27.26 133.21 L5.83 133.21 L5.83 137.05 L0 131.23 Z"
					class="st5"/>
		</g>
		<g id="shape13-44" v:mID="13" v:groupContext="shape" transform="translate(239.298,-3.07465)">
			<title>Rectangle.13</title>
			<desc>Another Imple-mentation Model</desc>
			<v:userDefs>
				<v:ud v:nameU="visVersion" v:val="VT0(14):26"/>
			</v:userDefs>
			<v:textBlock v:margins="rect(4,4,4,4)" v:tabSpace="42.5197"/>
			<v:textRect cx="32.5984" cy="125.006" width="65.2" height="24.0945"/>
			<rect x="0" y="112.959" width="65.1969" height="24.0945" class="st4"/>
			<text x="7.91" y="122.61" class="st2" v:langID="1031"><v:paragraph v:horizAlign="1"/><v:tabList/>Another Imple-<tspan
						x="4.14" dy="1.2em" class="st3">mentation Model</tspan></text>		</g>
		<g id="shape14-48" v:mID="14" v:groupContext="shape" transform="translate(229.377,-11.4213) scale(-1,1)">
			<title>45 degree single.14</title>
			<v:userDefs>
				<v:ud v:nameU="visVersion" v:val="VT0(14):26"/>
			</v:userDefs>
			<path d="M0 131.23 L5.83 125.4 L5.83 129.25 L28.35 129.25 L28.35 133.21 L5.83 133.21 L5.83 137.05 L0 131.23 Z"
					class="st5"/>
		</g>
		<g id="shape17-50" v:mID="17" v:groupContext="shape" transform="translate(235.046,-126.382)">
			<title>Sheet.17</title>
			<desc>Implementation Models</desc>
			<v:textBlock v:margins="rect(4,4,4,4)" v:tabSpace="42.5197"/>
			<v:textRect cx="34.7244" cy="132.092" width="69.45" height="9.92126"/>
			<rect x="0" y="127.132" width="69.4488" height="9.92126" class="st6"/>
			<text x="5.3" y="133.89" class="st7" v:langID="1031"><v:paragraph v:horizAlign="1"/><v:tabList/>Implementation Models</text>		</g>
		<g id="shape18-53" v:mID="18" v:groupContext="shape" transform="translate(121.306,-110.791)">
			<title>Sheet.18</title>
			<desc>Different Computational Designs</desc>
			<v:textBlock v:margins="rect(4,4,4,4)" v:tabSpace="42.5197"/>
			<v:textRect cx="32.9528" cy="128.549" width="65.91" height="17.0079"/>
			<rect x="0" y="120.045" width="65.9055" height="17.0079" class="st6"/>
			<text x="21.98" y="126.75" class="st7" v:langID="1031"><v:paragraph v:horizAlign="1"/><v:tabList/>Different <tspan
						x="4.76" dy="1.2em" class="st3">Computational Designs</tspan></text>		</g>
	</g>
</svg>
