<?xml version="1.0" encoding="UTF-8"?>
<svg width="700px" height="700px" viewBox="0 0 700 700" version="1.1" xmlns="http://www.w3.org/2000/svg">
    <metadata>
        Image made by Lorc under CC BY 3.0 (available on https://game-icons.net)
    </metadata>
    <g stroke="none" stroke-width="1" fill="none" fill-rule="evenodd">
        <g>
            <polygon fill="#000000" points="0 0 700 0 700 700 0 700"/>
            <g transform="translate(25.373706, 28.339286)">
                <polygon fill="#FFFFFF"
                         transform="translate(321.809760, 317.934965) rotate(-25.764547) translate(-321.809760, -317.934965) "
                         points="155.801289 297.496819 487.81823 297.496819 487.81823 338.373111 155.801289 338.373111"/>
                <polygon fill="#FFFFFF"
                         transform="translate(321.475927, 318.008724) rotate(4.236108) translate(-321.475927, -318.008724) "
                         points="155.467829 297.570624 487.484025 297.570624 487.484025 338.446824 155.467829 338.446824"/>
                <polygon fill="#FFFFFF"
                         transform="translate(321.577045, 317.681986) rotate(34.235670) translate(-321.577045, -317.681986) "
                         points="155.570404 297.244065 487.583685 297.244065 487.583685 338.119906 155.570404 338.119906"/>
                <polygon fill="#FFFFFF"
                         transform="translate(321.808877, 317.934657) rotate(64.235453) translate(-321.808877, -317.934657) "
                         points="155.800407 297.496511 487.817347 297.496511 487.817347 338.372803 155.800407 338.372803"/>
                <polygon fill="#FFFFFF"
                         transform="translate(321.476537, 318.009432) rotate(94.236108) translate(-321.476537, -318.009432) "
                         points="155.46844 297.571332 487.484635 297.571332 487.484635 338.447532 155.46844 338.447532"/>
                <polygon fill="#FFFFFF"
                         transform="translate(321.578312, 317.683647) scale(-1, 1) rotate(-124.235670) translate(-321.578312, -317.683647) "
                         points="155.571672 297.245727 487.584952 297.245727 487.584952 338.121568 155.571672 338.121568"/>
                <path d="M461.016509,318.140055 C461.016509,394.923885 398.771364,457.169029 321.987534,457.169029 C245.203704,457.169029 182.95856,394.923885 182.95856,318.140055 C182.95856,241.356224 245.203704,179.11108 321.987534,179.11108 C398.771364,179.11108 461.016509,241.356224 461.016509,318.140055 Z"
                      fill="#FFFFFF"
                      transform="translate(321.987534, 318.140055) rotate(-25.764513) translate(-321.987534, -318.140055) "/>
                <path d="M427.313801,317.541001 C427.313801,376.627242 379.415049,424.525994 320.328807,424.525994 C261.242566,424.525994 213.343814,376.627242 213.343814,317.541001 C213.343814,258.45476 261.242566,210.556008 320.328807,210.556008 C379.415049,210.556008 427.313801,258.45476 427.313801,317.541001 Z"
                      fill="#000000"
                      transform="translate(320.328807, 317.541001) rotate(-10.764370) translate(-320.328807, -317.541001) "/>
                <polygon fill="#FFFFFF"
                         transform="translate(319.671644, 319.765140) rotate(-40.764428) translate(-319.671644, -319.765140) "
                         points="207.184365 295.034546 432.158924 295.034546 432.158924 344.495733 207.184365 344.495733"/>
                <path d="M356.651528,315.330152 C356.651528,334.15659 341.390201,349.419121 322.563763,349.419121 C303.737325,349.419121 288.475998,334.15659 288.475998,315.330152 C288.475998,296.503714 303.737325,281.242387 322.563763,281.242387 C341.390201,281.242387 356.651528,296.503714 356.651528,315.330152 Z"
                      stroke="#FFFFFF" stroke-width="18.688562" fill="#000000"
                      transform="translate(322.563763, 315.330754) rotate(-40.764113) translate(-322.563763, -315.330754) "/>
                <path d="M363.074213,0 C404.665794,25.8063009 439.161919,61.5646357 466.07457,102.203172 C366.068766,11.9705465 184.377077,-9.78595371 57.2618821,91.027255 C179.415113,36.7573708 322.016644,91.4360677 423.836554,160.553518 C456.452141,182.695835 491.597257,226.924258 505.300147,316.990803 C490.273726,503.406833 311.852538,536.740398 191.464867,450.353167 C297.600306,647.894012 611.218404,578.183784 647.326785,359.310581 C608.548346,421.810376 548.690504,468.478899 482.043815,495.046614 C607.37301,424.741052 673.978817,252.439279 579.456213,120.569082 C595.629865,189.61499 587.088235,261.601794 561.090303,325.77261 C595.46634,188.848466 520.38278,25.9519404 363.071658,0 L363.074213,0 Z"
                      fill="#FFFFFF"/>
                <path d="M284.255127,644.452321 C18.1538384,426.366082 131.085788,130.16085 312.979328,130.16085 C375.985029,130.16085 417.359428,141.76602 465.504787,178.947534 C338.708977,6.20117745 36.1083806,66.2685366 0,285.144294 C38.7784385,222.641945 98.6362812,175.973421 165.28297,149.405707 C39.953775,219.713824 -26.6520321,392.013041 67.8705714,523.883239 C51.6969194,454.837331 60.2385495,382.850527 86.2364813,318.67971 C61.6004068,455.60641 142.527433,599.020456 284.255127,644.452321 L284.255127,644.452321 Z"
                      fill="#FFFFFF"/>
                <path d="M498.599813,318.30553 C498.599813,416.439537 419.047699,495.991652 320.913692,495.991652 C222.779685,495.991652 143.227571,416.439537 143.227571,318.30553 C143.227571,220.171523 222.779685,140.619409 320.913692,140.619409 C419.047699,140.619409 498.599813,220.171523 498.599813,318.30553 Z"
                      stroke="#000000" stroke-width="18.6890208"/>
                <path d="M347.393691,558.182623 C427.140271,582.144157 552.883389,574.874956 621.114226,515.331388 C559.010469,526.136819 506.416717,524.125971 463.49394,489.404999"
                      fill="#FFFFFF"/>
                <path d="M249.24543,518.055103 C306.325902,578.682024 418.856704,635.25659 507.719807,617.805399 C448.53395,596.11022 403.991253,568.073335 384.179168,516.545051"
                      fill="#FFFFFF"/>
            </g>
        </g>
    </g>
</svg>