<?xml version="1.0" encoding="UTF-8" standalone="no"?>
<svg
   xmlns:dc="http://purl.org/dc/elements/1.1/"
   xmlns:cc="http://creativecommons.org/ns#"
   xmlns:rdf="http://www.w3.org/1999/02/22-rdf-syntax-ns#"
   xmlns:svg="http://www.w3.org/2000/svg"
   xmlns="http://www.w3.org/2000/svg"
   xmlns:sodipodi="http://sodipodi.sourceforge.net/DTD/sodipodi-0.dtd"
   xmlns:inkscape="http://www.inkscape.org/namespaces/inkscape"
   enable-background="new 0 0 850.39 566.93"
   viewBox="0 0 850.39 566.93"
   xml:space="preserve"
   id="svg2"
   version="1.1"
   inkscape:version="0.48.1 r9760"
   width="100%"
   height="100%"
   sodipodi:docname="oer-logo_cleaned.svg"><metadata
   id="metadata1116"><rdf:RDF><cc:Work
       rdf:about=""><dc:format>image/svg+xml</dc:format><dc:type
         rdf:resource="http://purl.org/dc/dcmitype/StillImage" /></cc:Work></rdf:RDF></metadata><defs
   id="defs1114" /><sodipodi:namedview
   pagecolor="#ffffff"
   bordercolor="#666666"
   borderopacity="1"
   objecttolerance="10"
   gridtolerance="10"
   guidetolerance="10"
   inkscape:pageopacity="0"
   inkscape:pageshadow="2"
   inkscape:window-width="640"
   inkscape:window-height="480"
   id="namedview1112"
   showgrid="false"
   inkscape:zoom="0.51329088"
   inkscape:cx="425.195"
   inkscape:cy="269.01482"
   inkscape:window-x="0"
   inkscape:window-y="0"
   inkscape:window-maximized="0"
   inkscape:current-layer="svg2" />


	
	
		
			
				
					
				
			
			
				
				
				
				
				
				
				
				
				
				
				
				
				
				
				
				
				
				
				
				
				
				
				
				
			
			
				
			
		
	


	


	
	
	
	
	
	
	
	
	
	
	
	
	
	
	
	
	
	
	
	
	
	
	
	



	
		
			
				<path
   d="m128.733,493.589c92.676-12.836 185.363-25.673 278.046-38.506-19.354-5.801-38.723-11.582-58.087-17.383l48.115,38.511c7.356,5.883 19.467,8.449 28.289,11.088 5.367,1.603 25.703,9.96 31.15,5.745l49.713-38.509-4.629.419c91.541,12.833 183.076,25.675 274.619,38.509 12.293,1.725-7.633-7.05-9.396-7.703-13.371-4.949-27.4-9.173-41.586-11.161-59.627-8.36-119.26-16.726-178.898-25.087l-88.553-12.413c-6.861-.965-10.467-1.615-16.23,2.852l-41.951,32.492c-1.112.855-2.218,1.716-3.33,2.578 19.816,5.611 39.63,11.221 59.433,16.837-11.682-9.359-23.381-18.716-35.072-28.072-4.314-3.455-8.627-6.908-12.941-10.359-7.404-5.931-19.497-8.513-28.391-11.172-8.511-2.552-20.736-7.541-29.908-6.277-21.11,2.922-42.21,5.846-63.312,8.774l-207.535,28.742c-2.367.325-4.731.654-7.085.982-3.621.5 17.784,9.649 19.767,10.31 10.523,3.495 26.304,10.394 37.772,8.803z"
   id="path110" />
			
		
		
			<path
   d="m454.092,245.988c-3.492-3.898-5.236-9.493-5.236-16.786s1.744-12.887 5.236-16.786 8.496-5.849 15.018-5.849 11.516,1.95 14.986,5.849 5.205,9.494 5.205,16.786-1.734,12.888-5.205,16.786-8.467,5.849-14.986,5.849-11.528-1.95-15.018-5.849zm7.351-6.101c1.744,2.444 4.301,3.667 7.666,3.667s5.91-1.223 7.635-3.667 2.588-6.007 2.588-10.686-.863-8.229-2.588-10.653-4.27-3.636-7.635-3.636-5.922,1.212-7.666,3.636c-1.746,2.424-2.619,5.975-2.619,10.653s.873,8.242 2.619,10.686z"
   id="path112" />
			<path
   d="m496.557,262.331v-32.94c0-3.161-.127-5.374-.379-6.639s-.379-2.023-.379-2.276c0-.673.852-1.179 2.555-1.517 1.705-.337 2.977-.506 3.818-.506s1.398.085 1.672.253 .494.433.662.79 .295.664.379.917 .18.632.285,1.138 .178.822.221.948c.756-1.391 1.881-2.529 3.375-3.414s3.186-1.328 5.08-1.328c3.49,0 6.33,1.508 8.518,4.521s3.281,7.166 3.281,12.455-1.168,9.463-3.502,12.519-5.605,4.584-9.812,4.584c-2.482,0-4.627-.653-6.436-1.96v12.455c0,1.349-1.262,2.023-3.785,2.023h-1.768c-2.524.001-3.785-.674-3.785-2.023zm13.755-17.892c3.91,0 5.867-3.171 5.867-9.516 0-6.343-1.703-9.516-5.111-9.516-2.02,0-3.744,1.244-5.174,3.73v14.1c1.43.801 2.903,1.202 4.418,1.202z"
   id="path114" />
			<path
   d="m535.014,247.379c-2.713-2.972-4.068-7.261-4.068-12.867s1.355-9.8 4.068-12.581 6.438-4.174 11.17-4.174 8.201,1.518 10.41,4.553 3.312,6.955 3.312,11.76c0,.506-.432,1.255-1.293,2.245s-1.504,1.485-1.924,1.485h-16.089c.209,2.402.924,4.109 2.145,5.121s2.775,1.518 4.67,1.518c1.893,0 3.701-.326 5.426-.98s2.607-.979 2.65-.979c.631,0 1.334.622 2.113,1.865s1.168,2.224 1.168,2.939c0,1.392-1.316,2.498-3.943,3.319s-5.102,1.233-7.414,1.233c-5.554,0-9.686-1.486-12.401-4.457zm15.806-15.839c0-1.938-.379-3.487-1.135-4.646s-1.895-1.739-3.408-1.739c-3.113,0-5.006,2.129-5.678,6.386h10.221z"
   id="path116" />
			<path
   d="m566.217,249.434v-20.043c0-3.161-.127-5.374-.379-6.639s-.379-2.023-.379-2.276c0-.673.852-1.179 2.555-1.517 1.705-.337 2.977-.506 3.818-.506s1.398.085 1.672.253 .494.433.662.79 .295.654.379.885 .18.623.285,1.17 .178.885.221,1.012c1.01-1.349 2.355-2.486 4.037-3.414s3.471-1.392 5.363-1.392c3.156,0 5.49.833 7.004,2.498 1.516,1.665 2.271,4.247 2.271,7.745v21.434c0,1.35-1.262,2.022-3.785,2.022h-1.768c-2.523,0-3.785-.673-3.785-2.022v-20.043c0-2.613-1.262-3.92-3.785-3.92-2.105,0-3.787,1.223-5.049,3.667v20.296c0,1.35-1.262,2.022-3.785,2.022h-1.768c-2.522,0-3.784-.673-3.784-2.022z"
   id="path118" />
			<path
   d="m450.369,330.765v-39.199c0-1.686.84-2.529 2.523-2.529h23.094c1.262,0 1.893,1.054 1.893,3.161v1.96c0,2.108-.631,3.161-1.893,3.161h-15.9v9.168h14.197c1.262,0 1.893,1.054 1.893,3.161v1.96c0,2.108-.631,3.161-1.893,3.161h-14.197v10.243h15.965c1.262,0 1.893,1.054 1.893,3.161v1.96c0,2.108-.631,3.161-1.893,3.161h-23.158c-1.684,0-2.524-.843-2.524-2.529z"
   id="path120" />
			<path
   d="m494.916,333.8c-3.492,0-6.332-1.507-8.518-4.521s-3.281-7.165-3.281-12.456 1.166-9.462 3.502-12.519c2.334-3.056 5.604-4.584 9.811-4.584 2.482,0 4.627.654 6.438,1.961v-14.036c0-1.349 1.262-2.023 3.785-2.023h1.766c2.525,0 3.787.675 3.787,2.023v34.521c0,2.614.125,4.806.379,6.576l.379,2.592c0,.675-.854,1.181-2.557,1.518s-2.977.506-3.816.506-1.4-.084-1.674-.253-.494-.442-.662-.822-.295-.695-.379-.948-.178-.664-.283-1.233c-.105-.568-.18-.916-.221-1.043-.758,1.392-1.883,2.529-3.375,3.414-1.495.885-3.188,1.327-5.081,1.327zm2.775-7.65c2.02,0 3.744-1.243 5.176-3.73v-14.099c-1.432-.801-2.904-1.202-4.418-1.202-3.912,0-5.867,3.173-5.867,9.516s1.703,9.515 5.109,9.515z"
   id="path122" />
			<path
   d="m519.838,323.558v-21.434c0-1.349 1.262-2.023 3.787-2.023h1.766c2.525,0 3.787.675 3.787,2.023v20.042c0,2.614 1.262,3.92 3.785,3.92 2.104,0 3.785-1.222 5.049-3.667v-20.295c0-1.349 1.262-2.023 3.785-2.023h1.768c2.523,0 3.785.675 3.785,2.023v20.042c0,2.614.127,4.806.379,6.576l.379,2.592c0,.675-.854,1.181-2.557,1.518s-2.977.506-3.816.506-1.4-.084-1.672-.253c-.275-.168-.496-.453-.664-.854s-.295-.717-.379-.948-.178-.643-.283-1.233c-.105-.59-.18-.948-.221-1.075-1.01,1.35-2.346,2.488-4.006,3.415s-3.461,1.391-5.396,1.391c-3.154,0-5.488-.832-7.004-2.497-1.514-1.666-2.272-4.247-2.272-7.746z"
   id="path124" />
			<path
   d="m557.824,329.658c-2.609-2.76-3.912-6.996-3.912-12.708s1.314-10.011 3.943-12.898 6.719-4.331 12.271-4.331c2.566,0 4.953.391 7.162,1.17s3.312,1.845 3.312,3.193c0,.632-.432,1.603-1.293,2.908-.863,1.307-1.547,1.96-2.051,1.96-.168,0-.547-.147-1.137-.442-1.852-.927-3.848-1.392-5.994-1.392s-3.785.781-4.922,2.34-1.703,3.983-1.703,7.271 .537,5.723 1.609,7.303 2.713,2.371 4.922,2.371 4.344-.484 6.404-1.454c.672-.253 1.051-.38 1.137-.38 .631,0 1.334.623 2.113,1.865s1.166,2.245 1.166,3.004-.463,1.454-1.387,2.086c-.926.633-2.041,1.097-3.346,1.392-2.691.589-4.795.885-6.309.885-5.381-.001-9.377-1.381-11.985-4.143z"
   id="path126" />
			<path
   d="m584.514,324.569c0-1.179.104-2.254.314-3.224s.695-2.013 1.451-3.13 1.768-2.033 3.029-2.751c2.986-1.77 7.424-2.655 13.314-2.655v-2.086c0-2.402-1.641-3.604-4.922-3.604-2.314,0-4.566.506-6.752,1.518-.758.338-1.199.506-1.326.506-.631,0-1.336-.652-2.113-1.96s-1.166-2.339-1.166-3.098c0-1.139 1.166-2.15 3.502-3.035 2.334-.885 5.184-1.328 8.549-1.328 9.043,0 13.566,3.521 13.566,10.56v11.886c0,2.614.127,4.806.379,6.576l.379,2.592c0,.675-.854,1.181-2.557,1.518s-2.977.506-3.816.506-1.4-.084-1.672-.253c-.275-.168-.496-.453-.664-.854s-.295-.717-.379-.948-.178-.643-.283-1.233c-.105-.59-.18-.948-.221-1.075-.758,1.35-2.061,2.488-3.912,3.415s-3.639,1.391-5.363,1.391c-3.24,0-5.605-.843-7.1-2.529s-2.237-3.923-2.237-6.705zm9.275-.949c0,.844.271,1.518.82,2.023s1.365.759 2.461.759c1.092,0 2.166-.379 3.217-1.138s1.83-1.707 2.336-2.846v-3.478c-5.891.002-8.834,1.562-8.834,4.68z"
   id="path128" />
			<path
   d="m632.721,326.403 1.703-.253c.547,0 1.01.622 1.389,1.865s.568,2.14.568,2.688c0,2.065-2.02,3.098-6.059,3.098-6.143,0-9.213-3.414-9.213-10.242v-15.934h-1.01c-1.262,0-1.893-1.053-1.893-3.161v-1.074c0-2.107.631-3.162 1.893-3.162h1.01l.82-6.006c.211-1.349 1.346-2.023 3.408-2.023h1.955c2.104,0 3.156.675 3.156,2.023v6.006h3.092c1.262,0 1.893,1.055 1.893,3.162v1.074c0,2.108-.631,3.161-1.893,3.161h-3.092v16.06c.001,1.811.757,2.718 2.273,2.718z"
   id="path130" />
			<path
   d="m645.34,294.79c-2.523,0-3.785-.674-3.785-2.023v-5.121c0-1.349 1.262-2.023 3.785-2.023h1.768c2.523,0 3.785.675 3.785,2.023v5.121c0,1.35-1.262,2.023-3.785,2.023h-1.768zm-3.785,36.608v-29.273c0-1.349 1.262-2.023 3.785-2.023h1.768c2.523,0 3.785.675 3.785,2.023v29.273c0,1.35-1.262,2.022-3.785,2.022h-1.768c-2.524,0-3.785-.673-3.785-2.022z"
   id="path132" />
			<path
   d="m661.115,329.406c-2.609-2.929-3.912-7.154-3.912-12.677s1.303-9.736 3.912-12.645 6.414-4.363 11.42-4.363 8.803,1.455 11.389,4.363 3.881,7.123 3.881,12.645-1.293,9.748-3.881,12.677-6.383,4.395-11.389,4.395-8.812-1.465-11.42-4.395zm5.553-12.645c0,6.428 1.945,9.642 5.836,9.642s5.836-3.214 5.836-9.642-1.945-9.643-5.836-9.643-5.836,3.215-5.836,9.643z"
   id="path134" />
			<path
   d="m694.367,331.398v-20.043c0-3.161-.127-5.374-.379-6.639s-.379-2.023-.379-2.276c0-.673.852-1.179 2.555-1.517 1.705-.337 2.977-.506 3.818-.506s1.398.085 1.672.253 .494.433.662.79 .295.654.379.885 .18.623.285,1.17 .178.885.221,1.012c1.01-1.349 2.355-2.486 4.037-3.414s3.471-1.392 5.363-1.392c3.156,0 5.49.833 7.004,2.498 1.516,1.665 2.271,4.247 2.271,7.745v21.434c0,1.35-1.262,2.022-3.785,2.022h-1.768c-2.523,0-3.785-.673-3.785-2.022v-20.043c0-2.613-1.262-3.92-3.785-3.92-2.105,0-3.787,1.223-5.049,3.667v20.296c0,1.35-1.262,2.022-3.785,2.022h-1.768c-2.522,0-3.784-.673-3.784-2.022z"
   id="path136" />
			<path
   d="m728.25,324.569c0-1.179.105-2.254.316-3.224s.693-2.013 1.451-3.13 1.766-2.033 3.027-2.751c2.986-1.77 7.424-2.655 13.314-2.655v-2.086c0-2.402-1.641-3.604-4.922-3.604-2.314,0-4.564.506-6.752,1.518-.756.338-1.197.506-1.324.506-.631,0-1.336-.652-2.113-1.96s-1.168-2.339-1.168-3.098c0-1.139 1.168-2.15 3.502-3.035s5.184-1.328 8.551-1.328c9.043,0 13.564,3.521 13.564,10.56v11.886c0,2.614.127,4.806.379,6.576l.379,2.592c0,.675-.852,1.181-2.555,1.518-1.705.338-2.977.506-3.818.506s-1.398-.084-1.672-.253-.494-.453-.662-.854-.295-.717-.379-.948-.18-.643-.283-1.233c-.105-.59-.18-.948-.221-1.075-.758,1.35-2.062,2.488-3.912,3.415s-3.641,1.391-5.365,1.391c-3.238,0-5.605-.843-7.098-2.529s-2.239-3.923-2.239-6.705zm9.275-.949c0,.844.273,1.518.82,2.023s1.367.759 2.461.759 2.166-.379 3.219-1.138 1.83-1.707 2.334-2.846v-3.478c-5.89.002-8.834,1.562-8.834,4.68z"
   id="path138" />
			<path
   d="m775.572,326.403 1.705-.253c.545,0 1.01.622 1.387,1.865s.568,2.14.568,2.688c0,2.065-2.02,3.098-6.057,3.098-6.143,0-9.213-3.414-9.213-10.242v-35.912c0-1.349 1.262-2.023 3.785-2.023h1.768c2.523,0 3.785.675 3.785,2.023v36.038c.001,1.811.759,2.718 2.272,2.718z"
   id="path140" />
			<path
   d="m450.369,413.362v-39.832c0-1.686.84-2.529 2.523-2.529h12.305c10.475,0 15.711,3.962 15.711,11.887 0,2.36-.662,4.415-1.986,6.164-1.326,1.75-3.125,3.046-5.396,3.889v.253c.799.295 1.619,1.001 2.461,2.118s1.535,2.35 2.082,3.698l5.553,13.91c.211.548.316.948.316,1.201 0,.844-1.262,1.264-3.785,1.264h-2.588c-2.104,0-3.324-.442-3.66-1.327l-4.984-12.329c-.715-1.391-1.482-2.371-2.303-2.94s-2.178-.854-4.07-.854h-2.461v15.428c0,1.35-1.262,2.022-3.785,2.022h-2.146c-2.525-.001-3.787-.674-3.787-2.023zm9.717-23.836h5.994c1.305,0 2.439-.527 3.408-1.581s1.451-2.328 1.451-3.825-.475-2.676-1.42-3.541c-.947-.863-2.24-1.296-3.881-1.296h-5.553v10.243z"
   id="path142" />
			<path
   d="m491.225,411.307c-2.713-2.972-4.07-7.261-4.07-12.867s1.357-9.8 4.07-12.581 6.436-4.174 11.168-4.174 8.203,1.518 10.412,4.553 3.312,6.955 3.312,11.76c0,.506-.432,1.255-1.295,2.245s-1.504,1.485-1.924,1.485h-16.09c.211,2.402.924,4.109 2.145,5.121s2.777,1.518 4.67,1.518 3.701-.326 5.426-.98 2.609-.979 2.65-.979c.631,0 1.336.622 2.115,1.865s1.166,2.224 1.166,2.939c0,1.392-1.314,2.498-3.943,3.319s-5.102,1.233-7.414,1.233c-5.553,0-9.685-1.486-12.398-4.457zm15.806-15.839c0-1.938-.379-3.487-1.137-4.646s-1.893-1.739-3.406-1.739c-3.115,0-5.008,2.129-5.68,6.386h10.223z"
   id="path144" />
			<path
   d="m520.469,411.275c0-.674.4-1.622 1.199-2.845s1.514-1.834 2.145-1.834c.084,0 .842.296 2.273.886s2.732.885 3.912.885c2.564,0 3.848-.948 3.848-2.845 0-1.012-.432-1.823-1.293-2.435s-1.914-1.127-3.154-1.549-2.482-.927-3.723-1.518-2.295-1.559-3.156-2.908-1.293-3.076-1.293-5.185c0-3.161 1.041-5.659 3.123-7.492s4.91-2.751 8.486-2.751c1.682,0 3.281.169 4.797.506 3.027.675 4.543,1.834 4.543,3.478 0,.549-.316,1.466-.947,2.751-.631,1.286-1.221,1.928-1.768,1.928-.041,0-.662-.221-1.861-.664s-2.365-.663-3.502-.663c-2.271,0-3.406.759-3.406,2.275 0,.844.43,1.528 1.293,2.056s1.914,1.011 3.154,1.454 2.482.99 3.725,1.644 2.291,1.687 3.154,3.098 1.293,3.151 1.293,5.217c0,3.33-1.084,5.996-3.25,7.998s-4.879,3.003-8.139,3.003-5.984-.391-8.172-1.17-3.281-1.887-3.281-3.32z"
   id="path146" />
			<path
   d="m551.135,411.369c-2.609-2.929-3.912-7.154-3.912-12.677s1.303-9.736 3.912-12.645 6.414-4.363 11.422-4.363c5.004,0 8.801,1.455 11.389,4.363s3.881,7.123 3.881,12.645-1.295,9.748-3.881,12.677-6.385,4.395-11.389,4.395c-5.008,0-8.815-1.464-11.422-4.395zm5.553-12.644c0,6.428 1.945,9.642 5.836,9.642s5.838-3.214 5.838-9.642-1.947-9.643-5.838-9.643-5.836,3.215-5.836,9.643z"
   id="path148" />
			<path
   d="m584.197,405.522v-21.434c0-1.349 1.262-2.023 3.787-2.023h1.766c2.525,0 3.787.675 3.787,2.023v20.042c0,2.614 1.262,3.92 3.785,3.92 2.104,0 3.785-1.222 5.049-3.667v-20.295c0-1.349 1.262-2.023 3.785-2.023h1.768c2.523,0 3.785.675 3.785,2.023v20.042c0,2.614.127,4.806.379,6.576l.379,2.592c0,.675-.854,1.181-2.557,1.518s-2.977.506-3.816.506-1.4-.084-1.672-.253c-.275-.168-.496-.453-.664-.854s-.295-.717-.379-.948-.178-.643-.283-1.233c-.105-.59-.18-.948-.221-1.075-1.01,1.35-2.346,2.488-4.006,3.415s-3.461,1.391-5.396,1.391c-3.154,0-5.488-.832-7.004-2.497-1.514-1.666-2.272-4.247-2.272-7.746z"
   id="path150" />
			<path
   d="m619.533,413.362v-20.043c0-3.161-.127-5.374-.379-6.639s-.379-2.023-.379-2.276c0-.673.852-1.179 2.555-1.517 1.705-.337 2.977-.506 3.818-.506s1.398.085 1.672.253 .494.433.662.79 .295.654.379.885 .18.623.285,1.17 .178.885.221,1.012c1.766-3.203 4.059-4.806 6.877-4.806 1.346,0 2.281.349 2.809,1.044 .525.695.789,1.485.789,2.371s-.189,1.991-.568,3.319-.842,1.991-1.389,1.991c-.252,0-.693-.084-1.324-.253s-1.18-.253-1.641-.253c-2.105,0-3.787,1.054-5.049,3.161v20.296c0,1.35-1.262,2.022-3.785,2.022h-1.768c-2.523.001-3.785-.672-3.785-2.021z"
   id="path152" />
			<path
   d="m645.277,411.622c-2.609-2.76-3.912-6.996-3.912-12.708s1.314-10.011 3.943-12.898 6.719-4.331 12.271-4.331c2.566,0 4.953.391 7.162,1.17s3.312,1.845 3.312,3.193c0,.632-.432,1.603-1.293,2.908-.863,1.307-1.547,1.96-2.051,1.96-.168,0-.547-.147-1.137-.442-1.852-.927-3.848-1.392-5.994-1.392s-3.785.781-4.922,2.34-1.703,3.983-1.703,7.271 .537,5.723 1.609,7.303 2.713,2.371 4.922,2.371 4.344-.484 6.404-1.454c.672-.253 1.051-.38 1.137-.38 .631,0 1.334.623 2.113,1.865s1.166,2.245 1.166,3.004-.463,1.454-1.387,2.086c-.926.633-2.041,1.097-3.346,1.392-2.691.589-4.795.885-6.309.885-5.381-.001-9.377-1.381-11.985-4.143z"
   id="path154" />
			<path
   d="m676.035,411.307c-2.713-2.972-4.068-7.261-4.068-12.867s1.355-9.8 4.068-12.581 6.438-4.174 11.17-4.174 8.201,1.518 10.41,4.553 3.312,6.955 3.312,11.76c0,.506-.432,1.255-1.293,2.245s-1.504,1.485-1.924,1.485h-16.09c.209,2.402.924,4.109 2.145,5.121s2.775,1.518 4.67,1.518c1.893,0 3.701-.326 5.426-.98s2.607-.979 2.65-.979c.631,0 1.334.622 2.113,1.865s1.168,2.224 1.168,2.939c0,1.392-1.316,2.498-3.943,3.319s-5.102,1.233-7.414,1.233c-5.552,0-9.685-1.486-12.4-4.457zm15.807-15.839c0-1.938-.379-3.487-1.135-4.646s-1.895-1.739-3.408-1.739c-3.113,0-5.006,2.129-5.678,6.386h10.221z"
   id="path156" />
			<path
   d="m705.281,411.275c0-.674.398-1.622 1.199-2.845s1.514-1.834 2.145-1.834c.084,0 .842.296 2.271.886s2.734.885 3.912.885c2.564,0 3.85-.948 3.85-2.845 0-1.012-.432-1.823-1.295-2.435s-1.914-1.127-3.154-1.549-2.482-.927-3.723-1.518-2.293-1.559-3.154-2.908-1.295-3.076-1.295-5.185c0-3.161 1.041-5.659 3.125-7.492s4.91-2.751 8.486-2.751c1.682,0 3.281.169 4.795.506 3.029.675 4.543,1.834 4.543,3.478 0,.549-.314,1.466-.945,2.751-.633,1.286-1.221,1.928-1.768,1.928-.043,0-.662-.221-1.861-.664s-2.367-.663-3.502-.663c-2.271,0-3.408.759-3.408,2.275 0,.844.432,1.528 1.295,2.056s1.912,1.011 3.154,1.454 2.482.99 3.723,1.644 2.293,1.687 3.154,3.098 1.295,3.151 1.295,5.217c0,3.33-1.084,5.996-3.25,7.998s-4.881,3.003-8.141,3.003-5.984-.391-8.17-1.17-3.281-1.887-3.281-3.32z"
   id="path158" />
		
		
			<path
   d="m110.965,442.281c31.407-8.983 64.035-14.633 96.487-18.867 61.657-8.041 129.616-9.074 187.796,14.523 6.244,2.527 20.901,7.436 26.407,4.191 6.736-3.976 6.396-9.072 6.169-12.388-1.431-38.853-5.631-122.284-5.631-122.284s-2.9-63.199 2.017-98.805c6.476-4.289 13.94-12.213 15.819-24.77 .11-20.291 2.009-28.715 12.989-44.916 3.854-5.689 13.487-16.718 8.02-23.186-5.674-6.727-9.197,4.885-12.023,8.587-2.474,3.226-17.329,22.228-20.995,18.121-3.779-4.224 20.493-48.896 14.438-57.3-6.38-8.861-14.438,16.224-15.376,18.246-4.735,9.86-8.797,19.924-12.403,30.129 .024.655-2.798,1.611-3.568.771-.05-8.318-.784-15.668-.349-27.105 .518-13.508.719-37.242-7.842-36.447-9.09.842.527,59.124-9.012,63.059-7.18,2.961-11.774-20.318-13.096-25.151-2.205-8.042-3.128-26.646-10.223-27.751-10.275-1.6-5.912,14.283-4.989,19.314 1.491,8.112 15.234,64.004 5.894,68.111-6.41,2.82-16.757-11.991-23.945-15.933-4.698-2.595-21.447-6.646-20.938.761 .253,3.623 8.955,6.369 11.976,8.771 13.78,10.961 29.495,33.695 42.151,42.672 3.807,3.609 8.26,5.773 12.52,7.083 1.157,3.325 2.09,7.029 2.768,11.204 3.632,41.18 5.598,95.59 6.648,138.27-12.672-27.533-30.098-53.51-47.707-77.512-9.028-12.301-18.492-24.449-28.415-36.252 3.315-5.334 6.507-15.12 1.566-26.35-8.939-14.439-11.34-21.166-10.752-37.004 .2-5.564 2.136-17.203-4.617-19.631-7.013-2.518-4.356,7.111-4.717,10.859-.32,3.27-2.407,22.633-6.839,21.174-4.557-1.508-7.194-42.812-15.23-46.375-8.469-3.756-3.021,17.236-2.794,19.037 1.015,8.871 2.615,17.617 4.598,26.289 .306.453-1.274,2.252-2.187,1.965-3.736-5.882-7.523-10.811-12.297-19.093-5.643-9.792-18.939-27.771-22.348-21.329-2.723,5.209 24.301,39.641 22.222,46.877-1.685,5.885-17.386-9.746-20.469-12.648-5.149-4.826-14.074-17.658-19.589-15.638-8.009,2.938 2.146,12.478 5.049,15.674 4.658,5.173 39.258,39.372 34.451,45.991-3.301,4.535-17.207-1.877-24.066-1.821-4.487.028-18.167,3.781-14.514,8.837 1.793,2.467 9.182.971 12.396,1.475 14.646,2.324 35.9,12.217 48.866,13.572 5.126,1.257 10.004.695 14.033-.42 7.59,9.266 14.933,18.705 22.046,28.227 19.904,26.631 39.447,56.099 52.324,87.424-23.391-21.775-51.482-39.693-78.779-55.49-13.605-7.873-27.598-15.365-41.85-22.365-.446-4.93-3.49-14.057-13.475-19.209-13.152-4.656-18.219-7.736-26.412-18.191-2.875-3.664-8.006-12.119-13.358-10.203-5.566,1.986 1.228,6.792 3.028,9.383 1.581,2.25 10.767,15.732 7.325,17.074-3.534,1.381-27.419-23.73-34.149-21.887-7.105,1.945 7.478,12.596 8.598,13.631 5.391,5.17 11.064,9.947 16.935,14.488 .429.123.447,2.094-.253,2.379-5.424-1.854-10.342-3.062-17.67-5.916-8.666-3.378-22.387-7.744-20.95-1.856 1.187,4.729 31.995,12.583 34.658,18.294 2.158,4.641-15.692,2.682-19.107,2.41-5.681-.455-17.966-4.094-20.179.049-3.211,5.988 8.023,6.879 11.492,7.447 5.576.913 44.773,5.053 45.463,11.758 .472,4.605-11.329,7.646-15.414,11.205-2.675,2.321-8.855,11.748-3.933,13.111 2.403.659 6.03-4.096 8.229-5.418 10.037-6.039 28.119-10.618 36.627-16.414 2.32-1.129 4.211-2.66 5.751-4.326 10.013,5.148 19.923,10.467 29.641,15.982 29.134,16.533 59.161,35.894 83.474,59.646-35.57-16.828-75.028-26.577-113.729-33.131-35.726-6.039-72.59-9.951-109.184-9.533-2.641.026-15.041-.287-15.391,4.57-.324,4.746 12.068,5.262 14.695,5.23 30.279-.342 60.566,2.811 90.244,7.268 36.44,5.474 74.206,14.471 108.05,30.292-34.356-9.177-70.597-12.679-105.837-13.72-36.276-1.062-73.346.135-109.489,5.583-2.615.396-14.927,1.782-14.521,6.638 .406,4.742 12.742,3.549 15.34,3.156 29.906-4.502 60.361-5.559 90.4-5.223 38.178.422 78.346,4.369 115.3,16.277-36.626-3-74.001-.962-109.999,3.112-39.306,4.456-79.049,11.253-117.001,22.112-2.738.783-15.748,4.027-14.405,8.758 1.316,4.632 14.397,1.568 17.116.791z"
   fill-rule="evenodd"
   id="path160" />
		
	


	
		
	
	
		
			
				
					
				
			
			
				
				
				
				
				
				
				
				
				
				
				
				
				
				
				
				
				
				
				
				
				
				
				
				
				
				
			
			
				
			
		
	


	
		
			
				
			
		
		
			
			
			
			
			
			
			
			
			
			
			
			
			
			
			
			
			
			
			
			
			
			
			
			
			
			
		
		
			
		
	


	
		
			
				
			
		
		
			
			
			
			
			
			
			
			
			
			
			
			
			
			
			
			
			
			
			
			
			
			
			
			
			
			
		
		
			
		
	


	
		
	
	
		
			
				
			
		
		
			
			
			
			
			
			
		
		
			
		
	


	
		
			
		
	
	
		
		
		
		
		
		
	
	
		
	


	
		
			
		
	
	
		
		
		
		
		
		
	
	
		
	


	


	


	
	
	
	
	
	
	
	
	
	
	
	
	
	
	
	
	
	
	
	
	
	
	
	
	
	
	
	
	
	



	
		
	
	
		
		
		
		
		
		
		
		
		
		
		
		
		
		
		
		
		
		
		
		
		
		
		
		
		
		
		
		
		
		
	
	


	
		
	
	
		
		
		
		
		
		
		
		
		
		
		
		
		
		
		
		
		
		
		
		
		
		
		
		
		
		
		
		
		
		
	
	



	
		
	
	
	
		
		
		
		
		
		
		
		
		
		
		
			
			
			
		
	


	
		
	
	
	
		
		
		
		
		
		
		
		
		
		
		
			
			
			
		
	


	
		
	
	
	
		
		
		
		
		
		
		
		
		
		
		
			
			
			
		
	


	
		
	
	
		
			
				
					
				
			
			
				
				
				
				
				
				
				
				
				
				
				
				
				
				
				
				
				
				
				
				
				
				
				
				
				
				
			
			
				
			
		
	


	
		
			
				
			
		
		
			
			
			
			
			
			
			
			
			
			
			
			
			
			
			
			
			
			
			
			
			
			
			
			
			
			
		
		
			
		
	


	
		
			
				
			
		
		
			
			
			
			
			
			
			
			
			
			
			
			
			
			
			
			
			
			
			
			
			
			
			
			
			
			
		
		
			
		
	


	
		
	
	
		
		
		
		
		
		
		
		
		
		
		
		
		
		
		
		
		
		
		
		
		
		
		
		
	
	


	
		
	
	
		
		
		
		
		
		
		
		
		
		
		
		
		
		
		
		
		
		
		
		
		
		
		
		
		
		
	
	


	
		
	
	
		
		
		
		
		
		
	
	


	


	
	
	
	
	
	
	
	
	
	
	
	
	
	
	
	
	
	
	
	
	
	
	
	
	
	
	
	
	
	



	


	
		
			
			
			
			
			
			
			
			
			
			
			
				
				
				
			
		
	
	


	
		
	
	
		
		
		
		
		
		
		
		
		
		
		
		
		
		
		
		
		
		
		
		
		
		
		
		
		
		
	
	

</svg>