<?xml version="1.0" encoding="UTF-8"?>
<svg width="700px" height="700px" viewBox="0 0 700 700" version="1.1" xmlns="http://www.w3.org/2000/svg">
    <metadata>
        Image made by Lorc under CC BY 3.0 (available on https://game-icons.net)
    </metadata>
    <g stroke="none" stroke-width="1" fill="none">
        <polygon fill="#000000" points="0 0 700 0 700 700 0 700"/>
        <g transform="translate(28.047852, 28.702734)" fill="#FFFFFF">
            <path d="M268.465039,544.788672 C339.904688,552.827734 414.722656,529.752344 470.44375,475.87832 C569.499219,380.1 571.794727,222.418164 476.017773,123.362695 C380.24082,24.3072266 222.631445,21.1859375 123.575977,116.964258 C24.5205078,212.742578 22.1539062,371.246094 117.929492,470.300195 C159.833789,513.640039 212.902539,538.522852 268.465039,544.788672 Z M274.822461,490.516797 C231.406055,485.618164 189.683594,466.009961 156.943555,432.150195 C82.1064453,354.748242 84.2583984,231.638477 161.65625,156.804102 C239.054102,81.9697266 362.237695,83.2931641 437.073438,160.69375 C511.90918,238.094336 509.6875,362.027148 432.288281,436.861523 C388.75293,478.957227 330.639258,496.812695 274.821094,490.516797 L274.822461,490.516797 Z"/>
            <path d="M422.019336,477.561328 L501.018164,513.141016 L525.832617,486.740625 L485.428125,410.096094 L422.019336,477.561328 Z M108.293555,182.698633 L67.8904297,106.054102 L92.7021484,79.6509766 L171.702344,115.230664 L108.293555,182.698633 Z M333.868555,513.458203 L390.472852,579.053125 L424.108398,565.591797 L419.829102,479.057031 L333.868555,513.458203 Z M182.695898,108.791211 L182.989844,22.1498047 L217.289844,10.4808594 L270.350391,78.9769531 L182.695898,108.791211 Z M232.159375,508.47207 L253.56543,592.42832 L289.672852,595.381445 L324.436328,516.02168 L232.159375,508.47207 Z"/>
            <path d="M267.256445,79.3597656 L302.019922,0 L338.130078,2.953125 L359.534766,86.9080078 L267.256445,79.3597656 Z M148.229102,461.075781 L131.725781,546.13125 L163.113672,564.223242 L228.448828,507.319531 L148.229102,461.075781 Z M363.249414,88.0673828 L428.587305,31.1609375 L459.973828,49.2542969 L443.469141,134.309766 L363.249414,88.0673828 Z M88.8207031,373.086328 L34.4421875,440.536523 L53.7181641,471.210742 L138.081836,451.480859 L88.8207031,373.086328 Z M446.080469,134.643359 L529.2875,110.485156 L550.154883,140.099805 L499.413086,210.326758 L446.080469,134.643359 Z M77.2611328,280.225586 L0,319.429688 L4.99296875,355.314258 L90.0265625,371.92832 L77.2611328,280.225586 Z M503.695117,220.863672 L588.728711,237.479102 L593.723047,273.363672 L516.460547,312.567773 L503.695117,220.863672 Z M105.277539,187.85293 L18.6716797,190.244141 L7.83808594,224.816211 L77.5919922,276.20332 L105.277539,187.85293 Z M516.12832,316.590039 L585.883594,367.977148 L575.05,402.549219 L488.444141,404.941797 L516.12832,316.590039 Z"/>
        </g>
        <g transform="translate(143.787014, 225.819449)" stroke="#000000" stroke-width="18.6901972">
            <path d="M41.8045871,192.482504 C2.9012668,162.96766 -9.43760039,112.04266 7.26396211,68.6563318 L84.0534152,126.91766 C97.5817356,137.181137 117.172165,134.956722 127.024118,121.960238 C136.876071,108.963754 133.344626,90.0418787 119.816306,79.7784021 L43.0254856,21.5225428 C80.3223606,-6.2409338 132.693845,-8.06612911 171.595798,21.4459803 C201.493454,44.1330896 216.166111,79.5719568 213.757126,114.343637 L398.583103,254.569222 C431.433884,242.874301 469.505954,247.462582 499.409079,270.15516 C538.309665,299.674105 550.651267,350.597738 533.952439,393.981332 L457.162986,335.717269 C443.634665,325.459262 424.442087,327.155941 414.590134,340.138754 C404.738181,353.121566 407.870407,372.588949 421.398728,382.851058 L498.190915,441.109652 C460.89404,468.873129 408.522556,470.698324 369.620603,441.186215 C339.713376,418.495004 325.323728,382.695199 327.861228,347.755355 L143.036618,207.532504 C110.072361,219.373715 71.7022434,215.150472 41.8059543,192.474301 L41.8045871,192.482504 Z"
                  fill="#FFFFFF"/>
            <line x1="158.58154" y1="146.319418" x2="382.636228" y2="316.334652"/>
        </g>
    </g>
</svg>