<?xml version="1.0" standalone="no"?>
<!DOCTYPE svg PUBLIC "-//W3C//DTD SVG 20010904//EN"
 "http://www.w3.org/TR/2001/REC-SVG-20010904/DTD/svg10.dtd">
<svg version="1.0" xmlns="http://www.w3.org/2000/svg"
 width="700.000000pt" height="700.000000pt" viewBox="0 0 700.000000 700.000000"
 preserveAspectRatio="xMidYMid meet">
<metadata>
Created by potrace 1.11, written by Peter Selinger 2001-2013
</metadata>
<g transform="translate(0.000000,700.000000) scale(0.100000,-0.100000)"
fill="#000000" stroke="none">
<path d="M0 3500 l0 -3500 3500 0 3500 0 0 3500 0 3500 -3500 0 -3500 0 0
-3500z m3512 3196 c76 -6 141 -16 146 -21 5 -6 32 -102 61 -215 29 -113 57
-221 62 -241 9 -35 11 -36 96 -59 49 -12 136 -39 194 -60 l107 -37 179 156
c99 86 186 162 195 169 13 11 39 -1 164 -73 82 -47 152 -89 156 -93 4 -4 -15
-120 -42 -257 l-49 -250 42 -35 c23 -19 85 -76 138 -128 l97 -93 256 74 c232
68 257 73 269 58 14 -16 177 -245 191 -268 4 -8 -51 -93 -149 -228 l-155 -215
24 -48 c35 -69 89 -205 121 -302 15 -47 29 -86 30 -88 1 -1 118 -25 261 -53
142 -28 260 -51 260 -52 1 -1 12 -72 23 -157 12 -85 23 -165 26 -177 5 -20
-19 -34 -235 -144 l-240 -122 0 -78 c0 -43 -5 -122 -11 -176 -6 -54 -11 -107
-12 -117 -2 -14 49 -57 193 -164 107 -79 203 -149 212 -156 16 -11 13 -25 -36
-182 l-52 -169 -55 -7 c-30 -3 -122 -6 -205 -7 -83 -1 -179 -4 -213 -7 l-62
-7 -31 -61 c-57 -115 -110 -196 -122 -189 -6 4 -103 77 -216 162 -113 85 -206
155 -207 156 -1 1 24 55 57 121 148 298 212 558 213 874 0 96 -5 218 -12 270
-117 871 -778 1544 -1646 1675 -127 20 -388 22 -516 5 -427 -55 -813 -241
-1120 -538 -533 -514 -727 -1284 -502 -1987 94 -292 241 -539 453 -758 310
-322 692 -517 1140 -583 139 -20 469 -14 590 10 167 34 106 64 529 -258 206
-157 381 -291 388 -299 9 -8 16 -49 19 -113 l6 -99 -158 -62 c-88 -34 -164
-63 -170 -65 -6 -2 -86 85 -179 192 -122 141 -174 195 -189 194 -12 -1 -77
-11 -145 -23 -68 -13 -160 -26 -204 -29 l-82 -7 -108 -245 c-59 -134 -109
-246 -111 -248 -5 -4 -357 25 -361 30 -1 2 -27 104 -58 228 -31 124 -61 241
-67 261 -9 33 -14 37 -67 49 -32 7 -113 31 -180 54 l-123 42 -204 -178 -205
-178 -148 86 c-81 47 -152 89 -156 93 -5 5 15 125 42 268 28 143 51 264 51
269 0 6 -21 26 -47 46 -27 20 -104 93 -173 162 -69 69 -132 126 -140 126 -8 0
-127 -27 -265 -59 -137 -32 -253 -57 -257 -55 -9 6 -188 292 -188 300 0 4 71
95 158 202 86 108 163 204 169 213 11 14 8 29 -16 85 -15 38 -40 107 -56 154
-15 47 -30 88 -34 92 -3 4 -120 29 -259 57 -140 27 -256 51 -258 53 -2 3 -13
67 -24 144 -10 76 -22 156 -25 176 l-5 38 240 120 240 120 0 73 c0 72 15 238
25 288 6 24 -9 37 -197 175 -111 82 -208 154 -216 159 -10 9 -3 41 38 175 29
91 55 169 59 173 4 4 124 11 266 15 l259 7 71 125 c39 69 87 149 107 179 l36
53 -33 62 c-18 33 -74 139 -124 234 l-92 173 118 126 c64 69 123 127 130 130
6 3 118 -43 247 -102 l236 -106 90 65 c87 62 183 124 282 180 l48 27 2 261 3
260 170 59 c93 31 170 57 171 56 9 -16 308 -399 314 -402 5 -3 55 1 112 9 57
8 128 18 158 21 l55 6 75 172 c140 324 125 297 168 296 20 0 99 -6 174 -13z
m-836 -2097 c359 -63 652 -338 744 -699 15 -59 24 -129 27 -227 l6 -142 966
-733 c706 -536 973 -733 991 -732 14 0 70 13 125 29 89 25 116 28 245 29 170
0 264 -20 398 -84 222 -106 382 -271 471 -484 53 -128 65 -194 66 -368 0 -86
-3 -159 -6 -163 -4 -3 -141 96 -305 221 -367 278 -371 281 -442 305 -158 54
-309 25 -427 -83 -64 -58 -99 -116 -120 -194 -38 -145 -1 -293 98 -401 23 -25
182 -152 352 -281 171 -129 314 -239 319 -243 11 -10 -65 -43 -159 -70 -518
-144 -1042 174 -1160 705 -9 42 -20 138 -24 214 l-6 137 -755 572 c-415 315
-852 647 -971 737 l-215 163 -95 -28 c-355 -105 -692 -29 -945 214 -194 185
-285 405 -283 682 1 66 4 130 7 142 6 19 37 -1 322 -218 173 -132 342 -253
376 -270 85 -42 175 -56 264 -41 321 55 456 415 253 676 -27 35 -142 129 -367
300 l-329 249 28 14 c44 24 135 53 205 68 80 16 266 19 346 4z"/>
<path d="M3024 3279 c-64 -85 -75 -104 -62 -113 8 -6 507 -385 1109 -842 601
-456 1099 -833 1106 -837 8 -5 39 29 88 93 42 56 75 103 73 104 -29 22 -2174
1648 -2200 1668 l-37 29 -77 -102z"/>
</g>
</svg>
