<?xml version="1.0" encoding="UTF-8"?>
<svg xmlns="http://www.w3.org/2000/svg" width="700" height="700" viewBox="0 0 700 700">
    <metadata>
        Image made by Lorc under CC BY 3.0 (available on https://game-icons.net)
    </metadata>
    <g fill="none">
        <path fill="#FFFFFF" stroke="none" d="M.5 699.5h699V.5H.5z"/>
        <path fill="#000"
              d="M0 350v350h700V0H0v350zM321.5 30.7c3.5 26 9.7 44.5 20.4 60.1 4.8 7 16 17.9 22.2 21.5 29.5 17.2 65.9 4.1 90.4-32.8 5.1-7.6 13.1-22.9 15.3-29.4l1.1-3 7.8 3.2c11.8 4.7 36.5 17.5 48.1 24.7 16 10 35.5 24.9 34.4 26.3-27 33.2-37.8 65.6-30.5 91.6 5.3 19.3 20.8 33.9 41.8 39.6 9.3 2.5 29.1 3 41 1.1 8.1-1.3 28.7-7.5 36.6-11 1.3-.6 2.3.7 4.7 6.6 10.5 25.3 19.8 62 21.8 85.7l.7 7.7-9.4 1.2c-31.5 3.9-59 17.5-72.8 36-26.8 35.6-6.4 81 48.1 107.2 5.7 2.7 10.9 5 11.6 5 1.7 0 1.2 1.6-5 15.5-11.2 24.6-26.3 49-45.5 73.2-.9 1.2-2.6.3-10.3-5.5-26.8-20.4-58-29-82.9-23.1-9.4 2.3-17.3 6.9-24.6 14.3-7.9 8-12.3 16-15.7 28.3-2.9 11-2.9 30.8.1 45 2.2 10.5 6.9 25 10.2 31.5l1.9 3.7-12.8 4.9c-22.1 8.6-46.4 14.9-72.3 18.7-5.9.8-12.3 1.5-14.3 1.5-3.4 0-3.6-.2-3.6-3.3 0-1.7-.7-7.1-1.5-12-8-45.6-32.4-75-64.8-78.3-12.2-1.2-27.7 3.6-40.4 12.5-16.1 11.3-32.8 34-40.8 55.3-1 2.7-1.9 4.8-2 4.8-.1 0-3-1.2-6.5-2.6-20.4-8.3-48.5-23.7-65.6-36.1-12.6-9.1-18.3-13.7-18.4-14.9 0-.6 1.2-2.1 2.6-3.5 3.4-3.1 15.6-21.4 19.5-29.1 1.7-3.3 4.6-10.8 6.6-16.6 3.2-9.4 3.7-12.2 4.1-23.2.7-19.9-3.7-32.8-15.2-44.4-20.9-21.1-61.9-24.4-101.1-8.2-3.3 1.3-6.3 2.1-6.7 1.8-1.2-1.2-9.7-24-12.9-34.5-5.5-18.5-10.1-41.3-12.3-60.2l-.6-5.1 11.9-1.7c42.4-6.1 73.5-27.6 80.7-55.7 2.3-9 1.5-24.2-1.6-32.5-8.2-21.4-26.4-39.5-53.4-53-7.1-3.6-13.5-6.5-14.2-6.5-1.9 0-1.8-1.2 1.2-8.3 7.6-18.2 21.9-43.9 33.7-60.6C88.1 156 98.1 143 98.6 143c.1 0 4.1 2.9 8.7 6.4 20.9 15.7 41.2 24.1 61.8 25.3 12 .7 21.2-.8 30.4-5.1 9.7-4.5 16.4-10.2 21.9-18.5 14.8-22.3 15.4-54.5 1.5-89.3-2.2-5.5-3.8-10.2-3.7-10.4 1.9-1.8 26.5-10.6 41.6-14.8 16.9-4.7 46.8-10.3 56.4-10.5 3.7-.1 3.7-.1 4.3 4.6z"/>
        <path fill="#000"
              d="M333 156.6c-1.4.2-6.3.9-11 1.5-55.4 7.2-107.7 41.5-138.8 91.1-19.4 30.8-29.4 66-29.4 103.8 0 53.5 20 101.8 57.6 139.5 37.7 37.6 85.7 57.4 139.4 57.5 53.5 0 101-19.6 138.8-57.4 31-31 48.4-64.9 56.1-109.1 2.3-13.8 2.3-47-.1-61-5.8-33.8-17.3-60.8-38.2-89.1-7.3-10-26.4-29.1-37-37.1-25.6-19.4-55.8-32.4-87.8-37.9-8.6-1.5-44-2.8-49.6-1.8zm44.5 27c37.7 6.2 68.7 22.2 95.5 49.4 21.3 21.6 35.8 47.1 43.9 77 6.9 25.6 7 58.9 0 86.2-13.6 53.7-55 99.3-107.4 118.1-20.2 7.3-36.4 10.1-58.5 10.1-28.5 0-51.6-5.3-76.6-17.7C197.9 468.9 161 380.2 188 299c12.1-36.5 35.6-67.3 67.4-88.5 36.2-24.1 80-33.7 122.1-26.9z"/>
        <path fill="#000"
              d="M337.5 202.6c-24.1 2.8-44.5 9.3-62.2 19.8-35.5 21-60.8 54-70.9 92.8-5.9 22.8-5.9 52.4.1 75.8 13.4 52.5 56 95.1 108.5 108.5 19.4 5 43.4 5.9 63.3 2.5 50.7-8.6 94-43 113.8-90.5 9.2-22 13.2-48.1 11.1-71.3-3.5-36.7-18-67.9-43.8-93.6-24.9-25-55.6-39.7-90.6-43.5-9.2-1-22.6-1.2-29.3-.5z"/>
    </g>
</svg>
