<?xml version="1.0" encoding="UTF-8" standalone="no"?>
<!DOCTYPE svg PUBLIC "-//W3C//DTD SVG 1.0//EN" "http://www.w3.org/TR/2001/REC-SVG-20010904/DTD/svg10.dtd">
<!-- Generated by Microsoft Visio 11.0, SVG Export, v1.0 MDD.svg Page-1 -->
<svg xmlns="http://www.w3.org/2000/svg" xmlns:xlink="http://www.w3.org/1999/xlink" xmlns:ev="http://www.w3.org/2001/xml-events"
		xmlns:v="http://schemas.microsoft.com/visio/2003/SVGExtensions/" width="5.24345in" height="2.28737in"
		viewBox="0 0 377.528 164.691" xml:space="preserve" color-interpolation-filters="sRGB" class="st9">
	<v:documentProperties v:langID="1033" v:metric="true" v:viewMarkup="false"/>

	<style type="text/css">
	<![CDATA[
		.st1 {fill:#f2f2f2;stroke:none;stroke-linecap:round;stroke-linejoin:round;stroke-width:0.24}
		.st2 {fill:#000000;font-family:Calibri;font-size:0.666664em}
		.st3 {font-size:1em}
		.st4 {fill:#d8d8d8;stroke:#000000;stroke-linecap:round;stroke-linejoin:round;stroke-width:0.24}
		.st5 {fill:#a5a5a5;stroke:#000000;stroke-linecap:round;stroke-linejoin:round;stroke-width:0.24}
		.st6 {fill:#f2f2f2;stroke:#000000;stroke-linecap:round;stroke-linejoin:round;stroke-width:0.24}
		.st7 {fill:none;stroke:none;stroke-linecap:round;stroke-linejoin:round;stroke-width:0.75}
		.st8 {fill:#000000;font-family:Calibri;font-size:0.499992em}
		.st9 {fill:none;fill-rule:evenodd;font-size:12px;overflow:visible;stroke-linecap:square;stroke-miterlimit:3}
	]]>
	</style>

	<g v:mID="0" v:index="1" v:groupContext="foregroundPage">
		<title>Page-1</title>
		<v:pageProperties v:drawingScale="0.0393701" v:pageScale="0.0393701" v:drawingUnits="24" v:shadowOffsetX="8.50394"
				v:shadowOffsetY="-8.50394"/>
		<g id="shape2-1" v:mID="2" v:groupContext="shape" transform="translate(252.408,-0.24)">
			<title>Rectangle.16</title>
			<desc>Different Platforms</desc>
			<v:userDefs>
				<v:ud v:nameU="visVersion" v:val="VT0(14):26"/>
			</v:userDefs>
			<v:textBlock v:margins="rect(2,4,4,4)" v:tabSpace="42.5197" v:verticalAlign="0"/>
			<v:textRect cx="20.1969" cy="83.1947" width="40.4" height="162.992"/>
			<rect x="0" y="1.69866" width="40.3937" height="162.992" class="st1"/>
			<text x="5.56" y="10.9" class="st2" v:langID="1031"><v:paragraph v:horizAlign="1"/><v:tabList/>Different <tspan
						x="4.47" dy="1.2em" class="st3">Platforms</tspan></text>		</g>
		<g id="shape3-5" v:mID="3" v:groupContext="shape" transform="translate(80.5578,-0.24)">
			<title>Rectangle.3</title>
			<desc>Different Solutions (Design Choices)</desc>
			<v:userDefs>
				<v:ud v:nameU="visVersion" v:val="VT0(14):26"/>
			</v:userDefs>
			<v:textBlock v:margins="rect(4,4,4,4)" v:tabSpace="42.5197" v:verticalAlign="0"/>
			<v:textRect cx="19.1339" cy="83.9034" width="38.27" height="161.575"/>
			<rect x="0" y="3.11598" width="38.2677" height="161.575" class="st1"/>
			<text x="4.5" y="14.32" class="st2" v:langID="1031"><v:paragraph v:horizAlign="1"/><v:tabList/>Different <tspan
						x="4.13" dy="1.2em" class="st3">Solutions </tspan><tspan x="7" dy="1.2em" class="st3">(</tspan>Design <tspan
						x="5.41" dy="1.2em" class="st3">Choices</tspan>)</text>		</g>
		<g id="shape4-11" v:mID="4" v:groupContext="shape" transform="translate(1.18767,-54.0983)">
			<title>Star 7</title>
			<desc>Conceptual Information Model</desc>
			<v:userDefs>
				<v:ud v:nameU="visVersion" v:val="VT0(14):26"/>
			</v:userDefs>
			<v:textBlock v:margins="rect(4,4,4,4)" v:tabSpace="42.5197"/>
			<v:textRect cx="36.8504" cy="127.84" width="49.14" height="49.1339"/>
			<path d="M26.63 107.98 L6.54 105.59 L13.28 124.38 L-0.95 138.39 L17.95 144.83 L20.03 164.69 L36.85 153.93 L53.67 164.69
						 L55.75 144.83 L74.65 138.39 L60.42 124.38 L67.16 105.59 L47.34 107.98 L36.85 90.99 L26.63 107.98 Z"
					class="st4"/>
			<text x="18.45" y="120.64" class="st2" v:langID="1031"><v:paragraph v:horizAlign="1"/><v:tabList/>Conceptual <tspan
						x="17.44" dy="1.2em" class="st3">Information </tspan><tspan x="26.31" dy="1.2em" class="st3">Model</tspan></text>		</g>
		<g id="shape5-16" v:mID="5" v:groupContext="shape" transform="translate(216.847,5.64334) rotate(41.4237) scale(-1,1)">
			<title>45 degree single.4</title>
			<v:userDefs>
				<v:ud v:nameU="visVersion" v:val="VT0(14):26"/>
			</v:userDefs>
			<path d="M0 158.86 L5.83 153.04 L5.83 156.88 L32.13 156.88 L32.13 160.85 L5.83 160.85 L5.83 164.69 L0 158.86 Z"
					class="st5"/>
		</g>
		<g id="shape6-18" v:mID="6" v:groupContext="shape" transform="translate(298.471,-127.09)">
			<title>Rectangle</title>
			<desc>JavaScript Class Model 1</desc>
			<v:userDefs>
				<v:ud v:nameU="visVersion" v:val="VT0(14):26"/>
			</v:userDefs>
			<v:textBlock v:margins="rect(4,4,4,4)" v:tabSpace="42.5197"/>
			<v:textRect cx="32.5984" cy="152.644" width="65.2" height="24.0945"/>
			<rect x="0" y="140.596" width="65.1969" height="24.0945" class="st6"/>
			<text x="16.4" y="150.24" class="st2" v:langID="1031"><v:paragraph v:horizAlign="1"/><v:tabList/>JavaScript <v:newlineChar/><tspan
						x="10.13" dy="1.2em" class="st3">Class Model </tspan>1</text>		</g>
		<g id="shape7-22" v:mID="7" v:groupContext="shape" transform="translate(48.6353,-84.1857) rotate(-23.9625) scale(-1,1)">
			<title>45 degree single.3</title>
			<v:userDefs>
				<v:ud v:nameU="visVersion" v:val="VT0(14):26"/>
			</v:userDefs>
			<path d="M0 158.86 L5.83 153.04 L5.83 156.88 L27.92 156.88 L27.92 160.85 L5.83 160.85 L5.83 164.69 L0 158.86 Z"
					class="st5"/>
		</g>
		<g id="shape8-24" v:mID="8" v:groupContext="shape" transform="translate(123.786,-91.4802)">
			<title>Rounded rectangle</title>
			<desc>Information Design Model 1</desc>
			<v:userDefs>
				<v:ud v:nameU="visVersion" v:val="VT0(14):26"/>
			</v:userDefs>
			<v:textBlock v:margins="rect(4,4,2,4)" v:tabSpace="42.5197"/>
			<v:textRect cx="23.7402" cy="145.38" width="47.49" height="38.622"/>
			<path d="M33.31 164.69 A14.1733 14.1733 -180 0 0 47.48 150.52 L47.48 140.24 A14.1733 14.1733 -180 0 0 33.31 126.07 L14.17
						 126.07 A14.1733 14.1733 -180 0 0 -0 140.24 L0 150.52 A14.1733 14.1733 -180 0 0 14.17 164.69 L33.31 164.69
						 Z" class="st4"/>
			<text x="4.33" y="139.18" class="st2" v:langID="1031"><v:paragraph v:horizAlign="1"/><v:tabList/>Information <tspan
						x="12.82" dy="1.2em" class="st3">Design </tspan><tspan x="10.27" dy="1.2em" class="st3">Model </tspan>1</text>		</g>
		<g id="shape9-29" v:mID="9" v:groupContext="shape" transform="translate(123.786,-0.948661)">
			<title>Rounded rectangle.6</title>
			<desc>Information Design Model 2</desc>
			<v:userDefs>
				<v:ud v:nameU="visVersion" v:val="VT0(14):26"/>
			</v:userDefs>
			<v:textBlock v:margins="rect(4,4,2,4)" v:tabSpace="42.5197"/>
			<v:textRect cx="23.7402" cy="145.557" width="47.49" height="38.2677"/>
			<path d="M33.31 164.69 A14.1733 14.1733 -180 0 0 47.48 150.52 L47.48 140.6 A14.1733 14.1733 -180 0 0 33.31 126.42 L14.17
						 126.42 A14.1733 14.1733 -180 0 0 -0 140.6 L0 150.52 A14.1733 14.1733 -180 0 0 14.17 164.69 L33.31 164.69
						 Z" class="st6"/>
			<text x="4.33" y="139.36" class="st2" v:langID="1031"><v:paragraph v:horizAlign="1"/><v:tabList/>Information <tspan
						x="12.82" dy="1.2em" class="st3">Design </tspan><tspan x="10.27" dy="1.2em" class="st3">Model </tspan>2</text>		</g>
		<g id="shape10-34" v:mID="10" v:groupContext="shape" transform="translate(259.068,-127.914) rotate(-10.3048) scale(-1,1)">
			<title>45 degree single.8</title>
			<v:userDefs>
				<v:ud v:nameU="visVersion" v:val="VT0(14):26"/>
			</v:userDefs>
			<path d="M0 158.86 L5.83 153.04 L5.83 156.88 L31.69 156.88 L31.69 160.85 L5.83 160.85 L5.83 164.69 L0 158.86 Z"
					class="st5"/>
		</g>
		<g id="shape11-36" v:mID="11" v:groupContext="shape" transform="translate(298.471,-98.7439)">
			<title>Rectangle.9</title>
			<desc>Java EE Class Model 1</desc>
			<v:userDefs>
				<v:ud v:nameU="visVersion" v:val="VT0(14):26"/>
			</v:userDefs>
			<v:textBlock v:margins="rect(4,4,4,4)" v:tabSpace="42.5197"/>
			<v:textRect cx="32.5984" cy="152.644" width="65.2" height="24.0945"/>
			<rect x="0" y="140.596" width="65.1969" height="24.0945" class="st6"/>
			<text x="20.87" y="150.24" class="st2" v:langID="1031"><v:paragraph v:horizAlign="1"/><v:tabList/>Java EE <v:lf/><tspan
						x="10.13" dy="1.2em" class="st3">Class Model </tspan>1</text>		</g>
		<g id="shape12-40" v:mID="12" v:groupContext="shape" transform="translate(298.471,-66.8542)">
			<title>Rectangle.10</title>
			<desc>SQLite Table Model 1</desc>
			<v:userDefs>
				<v:ud v:nameU="visVersion" v:val="VT0(14):26"/>
			</v:userDefs>
			<v:textBlock v:margins="rect(4,4,4,4)" v:tabSpace="42.5197"/>
			<v:textRect cx="32.5984" cy="152.644" width="65.2" height="24.0945"/>
			<rect x="0" y="140.596" width="65.1969" height="24.0945" class="st4"/>
			<text x="22.14" y="150.24" class="st2" v:langID="1031"><v:paragraph v:horizAlign="1"/><v:tabList/>SQLite <v:newlineChar/><tspan
						x="9.35" dy="1.2em" class="st3">Table Model </tspan>1</text>		</g>
		<g id="shape13-44" v:mID="13" v:groupContext="shape" transform="translate(329.287,-105.036) rotate(15.2551) scale(-1,1)">
			<title>45 degree single.11</title>
			<v:userDefs>
				<v:ud v:nameU="visVersion" v:val="VT0(14):26"/>
			</v:userDefs>
			<path d="M0 158.86 L5.83 153.04 L5.83 156.88 L32.32 156.88 L32.32 160.85 L5.83 160.85 L5.83 164.69 L0 158.86 Z"
					class="st5"/>
		</g>
		<g id="shape14-46" v:mID="14" v:groupContext="shape" transform="translate(331.261,-70.3662) rotate(16.1276) scale(-1,1)">
			<title>45 degree single.12</title>
			<v:userDefs>
				<v:ud v:nameU="visVersion" v:val="VT0(14):26"/>
			</v:userDefs>
			<path d="M0 158.86 L5.83 153.04 L5.83 156.88 L30.61 156.88 L30.61 160.85 L5.83 160.85 L5.83 164.69 L0 158.86 Z"
					class="st5"/>
		</g>
		<g id="shape15-48" v:mID="15" v:groupContext="shape" transform="translate(299.888,-0.948661)">
			<title>Rectangle.13</title>
			<desc>Python Class Model 2</desc>
			<v:userDefs>
				<v:ud v:nameU="visVersion" v:val="VT0(14):26"/>
			</v:userDefs>
			<v:textBlock v:margins="rect(4,4,4,4)" v:tabSpace="42.5197"/>
			<v:textRect cx="32.5984" cy="152.644" width="65.2" height="24.0945"/>
			<rect x="0" y="140.596" width="65.1969" height="24.0945" class="st6"/>
			<text x="21.07" y="150.24" class="st2" v:langID="1031"><v:paragraph v:horizAlign="1"/><v:tabList/>Python<v:newlineChar/><tspan
						x="10.13" dy="1.2em" class="st3">Class Model </tspan>2</text>		</g>
		<g id="shape16-52" v:mID="16" v:groupContext="shape" transform="translate(287.487,-10.7127) scale(-1,1)">
			<title>45 degree single.14</title>
			<v:userDefs>
				<v:ud v:nameU="visVersion" v:val="VT0(14):26"/>
			</v:userDefs>
			<path d="M0 158.86 L5.83 153.04 L5.83 156.88 L31.18 156.88 L31.18 160.85 L5.83 160.85 L5.83 164.69 L0 158.86 Z"
					class="st5"/>
		</g>
		<g id="shape17-54" v:mID="17" v:groupContext="shape" transform="translate(7.56563,-31.4211)">
			<title>Sheet.17</title>
			<desc>CC-BY Gerd Wagner</desc>
			<v:textBlock v:margins="rect(4,4,4,4)" v:tabSpace="42.5197"/>
			<v:textRect cx="30.4724" cy="159.73" width="60.95" height="9.92126"/>
			<rect x="0" y="154.77" width="60.9449" height="9.92126" class="st7"/>
			<text x="6.26" y="161.53" class="st8" v:langID="1031"><v:paragraph v:horizAlign="1"/><v:tabList/>CC-BY Gerd Wagner</text>		</g>
		<g id="shape18-57" v:mID="18" v:groupContext="shape" transform="translate(199.613,-113.626)">
			<title>Rounded rectangle.18</title>
			<desc>OOP Class Design Model 1</desc>
			<v:userDefs>
				<v:ud v:nameU="visVersion" v:val="VT0(14):26"/>
			</v:userDefs>
			<v:textBlock v:margins="rect(4,4,2,4)" v:tabSpace="42.5197"/>
			<v:textRect cx="23.7402" cy="147.683" width="47.49" height="34.0157"/>
			<path d="M33.31 164.69 A14.1733 14.1733 -180 0 0 47.48 150.52 L47.48 144.85 A14.1733 14.1733 -180 0 0 33.31 130.68 L14.17
						 130.68 A14.1733 14.1733 -180 0 0 -0 144.85 L0 150.52 A14.1733 14.1733 -180 0 0 14.17 164.69 L33.31 164.69
						 Z" class="st6"/>
			<text x="7.38" y="141.48" class="st2" v:langID="1031"><v:paragraph v:horizAlign="1"/><v:tabList/>OOP Class <tspan
						x="12.82" dy="1.2em" class="st3">Design </tspan><tspan x="10.27" dy="1.2em" class="st3">Model </tspan>1</text>		</g>
		<g id="shape19-62" v:mID="19" v:groupContext="shape" transform="translate(199.613,-0.948661)">
			<title>Rounded rectangle.19</title>
			<desc>OO Class Design Model 2</desc>
			<v:userDefs>
				<v:ud v:nameU="visVersion" v:val="VT0(14):26"/>
			</v:userDefs>
			<v:textBlock v:margins="rect(4,4,2,4)" v:tabSpace="42.5197"/>
			<v:textRect cx="23.7402" cy="147.683" width="47.49" height="34.0157"/>
			<path d="M33.31 164.69 A14.1733 14.1733 -180 0 0 47.48 150.52 L47.48 144.85 A14.1733 14.1733 -180 0 0 33.31 130.68 L14.17
						 130.68 A14.1733 14.1733 -180 0 0 -0 144.85 L0 150.52 A14.1733 14.1733 -180 0 0 14.17 164.69 L33.31 164.69
						 Z" class="st6"/>
			<text x="9.44" y="141.48" class="st2" v:langID="1031"><v:paragraph v:horizAlign="1"/><v:tabList/>OO Class <tspan
						x="12.82" dy="1.2em" class="st3">Design </tspan><tspan x="10.27" dy="1.2em" class="st3">Model </tspan>2</text>		</g>
		<g id="shape20-67" v:mID="20" v:groupContext="shape" transform="translate(199.613,-73.9408)">
			<title>Rounded rectangle.20</title>
			<desc>RDB Table Design Model 1</desc>
			<v:userDefs>
				<v:ud v:nameU="visVersion" v:val="VT0(14):26"/>
			</v:userDefs>
			<v:textBlock v:margins="rect(4,4,2,4)" v:tabSpace="42.5197"/>
			<v:textRect cx="23.7402" cy="147.683" width="47.49" height="34.0157"/>
			<path d="M33.31 164.69 A14.1733 14.1733 -180 0 0 47.48 150.52 L47.48 144.85 A14.1733 14.1733 -180 0 0 33.31 130.68 L14.17
						 130.68 A14.1733 14.1733 -180 0 0 -0 144.85 L0 150.52 A14.1733 14.1733 -180 0 0 14.17 164.69 L33.31 164.69
						 Z" class="st4"/>
			<text x="7.15" y="141.48" class="st2" v:langID="1031"><v:paragraph v:horizAlign="1"/><v:tabList/>RDB Table <tspan
						x="12.82" dy="1.2em" class="st3">Design </tspan><tspan x="10.27" dy="1.2em" class="st3">Model </tspan>1</text>		</g>
		<g id="shape21-72" v:mID="21" v:groupContext="shape" transform="translate(264.99,-74.0197) rotate(26.5651) scale(-1,1)">
			<title>45 degree single.21</title>
			<v:userDefs>
				<v:ud v:nameU="visVersion" v:val="VT0(14):26"/>
			</v:userDefs>
			<path d="M0 158.86 L5.83 153.04 L5.83 156.88 L19.02 156.88 L19.02 160.85 L5.83 160.85 L5.83 164.69 L0 158.86 Z"
					class="st5"/>
		</g>
		<g id="shape22-74" v:mID="22" v:groupContext="shape" transform="translate(122.897,-102.366) rotate(-26.5651) scale(-1,1)">
			<title>45 degree single.22</title>
			<v:userDefs>
				<v:ud v:nameU="visVersion" v:val="VT0(14):26"/>
			</v:userDefs>
			<path d="M0 158.86 L5.83 153.04 L5.83 156.88 L19.02 156.88 L19.02 160.85 L5.83 160.85 L5.83 164.69 L0 158.86 Z"
					class="st5"/>
		</g>
		<g id="shape23-76" v:mID="23" v:groupContext="shape" transform="translate(193.944,-12.13) scale(-1,1)">
			<title>45 degree single.23</title>
			<v:userDefs>
				<v:ud v:nameU="visVersion" v:val="VT0(14):26"/>
			</v:userDefs>
			<path d="M0 158.86 L5.83 153.04 L5.83 156.88 L17.01 156.88 L17.01 160.85 L5.83 160.85 L5.83 164.69 L0 158.86 Z"
					class="st5"/>
		</g>
		<g id="shape24-78" v:mID="24" v:groupContext="shape" transform="translate(142.92,-153.311)">
			<title>Sheet.24</title>
			<desc>Design Models</desc>
			<v:textBlock v:margins="rect(4,4,4,4)" v:tabSpace="42.5197"/>
			<v:textRect cx="42.5197" cy="159.73" width="85.04" height="9.92126"/>
			<rect x="0" y="154.77" width="85.0394" height="9.92126" class="st7"/>
			<text x="18.59" y="162.13" class="st2" v:langID="1031"><v:paragraph v:horizAlign="1"/><v:tabList/>Design Models</text>		</g>
		<g id="shape25-81" v:mID="25" v:groupContext="shape" transform="translate(293.156,-154.02)">
			<title>Sheet.25</title>
			<desc>Implementation Models</desc>
			<v:textBlock v:margins="rect(0,0,0,0)" v:tabSpace="42.5197"/>
			<v:textRect cx="41.811" cy="159.73" width="83.63" height="9.92126"/>
			<rect x="0" y="154.77" width="83.622" height="9.92126" class="st7"/>
			<text x="2.58" y="162.13" class="st2" v:langID="1031"><v:paragraph v:horizAlign="1"/><v:tabList/>Implementation Models</text>		</g>
		<g id="shape26-84" v:mID="26" v:groupContext="shape" transform="translate(298.825,-37.0904)">
			<title>Rectangle.26</title>
			<desc>MS Access Table Model 1</desc>
			<v:userDefs>
				<v:ud v:nameU="visVersion" v:val="VT0(14):26"/>
			</v:userDefs>
			<v:textBlock v:margins="rect(4,4,4,4)" v:tabSpace="42.5197"/>
			<v:textRect cx="32.5984" cy="152.644" width="65.2" height="24.0945"/>
			<rect x="0" y="140.596" width="65.1969" height="24.0945" class="st4"/>
			<text x="15.62" y="150.24" class="st2" v:langID="1031"><v:paragraph v:horizAlign="1"/><v:tabList/>MS Access <v:newlineChar/><tspan
						x="9.35" dy="1.2em" class="st3">Table Model </tspan>1</text>		</g>
		<g id="shape27-88" v:mID="27" v:groupContext="shape" transform="translate(394.351,-9.79213) rotate(42.2737) scale(-1,1)">
			<title>45 degree single.27</title>
			<v:userDefs>
				<v:ud v:nameU="visVersion" v:val="VT0(14):26"/>
			</v:userDefs>
			<path d="M0 158.86 L5.83 153.04 L5.83 156.88 L42.14 156.88 L42.14 160.85 L5.83 160.85 L5.83 164.69 L0 158.86 Z"
					class="st5"/>
		</g>
	</g>
</svg>
